<?xml version="1.0" encoding="utf-8"?>
<!-- Generator: Adobe Illustrator 15.0.0, SVG Export Plug-In . SVG Version: 6.00 Build 0)  -->
<!DOCTYPE svg PUBLIC "-//W3C//DTD SVG 1.1//EN" "http://www.w3.org/Graphics/SVG/1.1/DTD/svg11.dtd">
<svg version="1.1" id="图层_1" xmlns="http://www.w3.org/2000/svg" xmlns:xlink="http://www.w3.org/1999/xlink" x="0px" y="0px"
	 width="34px" height="34px" viewBox="0 0 34 34" enable-background="new 0 0 34 34" xml:space="preserve">
<path d="M30.001,4.243h-2.122V2.122C27.879,0.95,26.931,0,25.757,0H4.539C3.365,0,2.417,0.95,2.417,2.122v25.461
	c0,1.172,0.949,2.123,2.122,2.123h2.122v2.12c0,1.172,0.949,2.124,2.121,2.124h21.219c1.174,0,2.121-0.952,2.121-2.124V6.366
	C32.122,5.195,31.175,4.243,30.001,4.243 M4.539,2.122h21.218v25.461H4.539V2.122z M30.001,31.826H8.782v-2.12h16.975
	c1.174,0,2.122-0.951,2.122-2.123V6.366h2.122V31.826z"/>
<path fill="#ADD7DA" d="M22.44,12.91H7.379c-0.592,0-1.075,0.483-1.075,1.075c0,0.593,0.483,1.076,1.075,1.076H22.44
	c0.593,0,1.076-0.483,1.076-1.076C23.517,13.393,23.033,12.91,22.44,12.91"/>
<path fill="#ADD7DA" d="M22.44,17.212H7.379c-0.592,0-1.075,0.483-1.075,1.076c0,0.592,0.483,1.076,1.075,1.076H22.44
	c0.593,0,1.076-0.484,1.076-1.076C23.517,17.696,23.033,17.212,22.44,17.212"/>
<path fill="#ADD7DA" d="M22.44,21.516H7.379c-0.592,0-1.075,0.484-1.075,1.075c0,0.594,0.483,1.077,1.075,1.077H22.44
	c0.593,0,1.076-0.483,1.076-1.077C23.517,22,23.033,21.516,22.44,21.516"/>
<path fill="#ADD7DA" d="M22.328,8.462V3.527c0-0.272-0.296-0.493-0.66-0.493c-0.363,0-0.661,0.221-0.661,0.493v4.935
	c0,0.272,0.298,0.494,0.661,0.494C22.032,8.956,22.328,8.734,22.328,8.462"/>
<path fill="#ADD7DA" d="M19.135,6.656h4.935c0.271,0,0.493-0.297,0.493-0.661c0-0.363-0.222-0.661-0.493-0.661h-4.935
	c-0.272,0-0.494,0.298-0.494,0.661C18.641,6.359,18.862,6.656,19.135,6.656"/>
</svg>
