<?xml version="1.0" encoding="utf-8"?>
<!-- Generator: Adobe Illustrator 21.0.0, SVG Export Plug-In . SVG Version: 6.00 Build 0)  -->
<svg version="1.1" id="图层_1" xmlns="http://www.w3.org/2000/svg" xmlns:xlink="http://www.w3.org/1999/xlink" x="0px" y="0px"
	 viewBox="0 0 319 108" style="enable-background:new 0 0 319 108;" xml:space="preserve">
<style type="text/css">
	.st0{clip-path:url(#SVGID_2_);}
	.st1{fill:url(#SVGID_3_);stroke:#FFFFFF;stroke-width:0.25;stroke-miterlimit:10;}
	.st2{fill:url(#SVGID_4_);stroke:#FFFFFF;stroke-width:0.25;stroke-miterlimit:10;}
	.st3{fill:url(#SVGID_5_);stroke:#FFFFFF;stroke-width:0.25;stroke-miterlimit:10;}
	.st4{fill:url(#SVGID_6_);stroke:#FFFFFF;stroke-width:0.25;stroke-miterlimit:10;}
	.st5{fill:url(#SVGID_7_);stroke:#FFFFFF;stroke-width:0.25;stroke-miterlimit:10;}
	.st6{fill:url(#SVGID_8_);stroke:#FFFFFF;stroke-width:0.25;stroke-miterlimit:10;}
	.st7{fill:url(#SVGID_9_);stroke:#FFFFFF;stroke-width:0.25;stroke-miterlimit:10;}
	.st8{fill:url(#SVGID_10_);stroke:#FFFFFF;stroke-width:0.25;stroke-miterlimit:10;}
	.st9{fill:url(#SVGID_11_);stroke:#FFFFFF;stroke-width:0.25;stroke-miterlimit:10;}
	.st10{fill:url(#SVGID_12_);stroke:#FFFFFF;stroke-width:0.25;stroke-miterlimit:10;}
	.st11{fill:url(#SVGID_13_);stroke:#FFFFFF;stroke-width:0.25;stroke-miterlimit:10;}
	.st12{fill:url(#SVGID_14_);stroke:#FFFFFF;stroke-width:0.25;stroke-miterlimit:10;}
	.st13{fill:url(#SVGID_15_);stroke:#FFFFFF;stroke-width:0.25;stroke-miterlimit:10;}
	.st14{fill:url(#SVGID_16_);stroke:#FFFFFF;stroke-width:0.25;stroke-miterlimit:10;}
	.st15{fill:url(#SVGID_17_);stroke:#FFFFFF;stroke-width:0.25;stroke-miterlimit:10;}
	.st16{fill:url(#SVGID_18_);stroke:#FFFFFF;stroke-width:0.25;stroke-miterlimit:10;}
	.st17{fill:url(#SVGID_19_);stroke:#FFFFFF;stroke-width:0.25;stroke-miterlimit:10;}
	.st18{fill:url(#SVGID_20_);stroke:#FFFFFF;stroke-width:0.25;stroke-miterlimit:10;}
	.st19{fill:url(#SVGID_21_);stroke:#FFFFFF;stroke-width:0.25;stroke-miterlimit:10;}
	.st20{fill:url(#SVGID_22_);stroke:#FFFFFF;stroke-width:0.25;stroke-miterlimit:10;}
	.st21{fill:url(#SVGID_23_);stroke:#FFFFFF;stroke-width:0.25;stroke-miterlimit:10;}
	.st22{fill:url(#SVGID_24_);stroke:#FFFFFF;stroke-width:0.25;stroke-miterlimit:10;}
	.st23{fill:url(#SVGID_25_);stroke:#FFFFFF;stroke-width:0.25;stroke-miterlimit:10;}
	.st24{fill:url(#SVGID_26_);stroke:#FFFFFF;stroke-width:0.25;stroke-miterlimit:10;}
	.st25{fill:url(#SVGID_27_);stroke:#FFFFFF;stroke-width:0.25;stroke-miterlimit:10;}
	.st26{fill:url(#SVGID_28_);stroke:#FFFFFF;stroke-width:0.25;stroke-miterlimit:10;}
	.st27{fill:url(#SVGID_29_);stroke:#FFFFFF;stroke-width:0.25;stroke-miterlimit:10;}
	.st28{fill:url(#SVGID_30_);stroke:#FFFFFF;stroke-width:0.25;stroke-miterlimit:10;}
	.st29{fill:url(#SVGID_31_);stroke:#FFFFFF;stroke-width:0.25;stroke-miterlimit:10;}
	.st30{fill:url(#SVGID_32_);stroke:#FFFFFF;stroke-width:0.25;stroke-miterlimit:10;}
	.st31{fill:none;stroke:url(#SVGID_33_);stroke-width:0.25;stroke-miterlimit:10;}
	.st32{fill:#73B5B8;stroke:#FFFFFF;stroke-width:0.25;stroke-miterlimit:10;}
	.st33{fill:#FFFFFF;}
	.st34{fill:#E67117;}
	.st35{clip-path:url(#SVGID_35_);}
	.st36{fill:none;stroke:#FFFFFF;stroke-width:0.3445;stroke-miterlimit:10;}
</style>
<g>
	<g>
		<defs>
			<path id="SVGID_1_" d="M76.2,72.1c-4.6,4.8-10.8,6.9-18,6.9c-14.1,0-25.5-11.4-25.5-25.5s11.4-25.5,25.5-25.5
				c7.2,0,13.3,2.6,17.9,7.4l20.8-18.6C87.2,6.8,73.1,0,58.2,0C28.7,0,4.8,23.9,4.8,53.4s23.9,53.4,53.4,53.4
				c14.9,0,28.7-6.4,38.4-16.2L76.2,72.1z"/>
		</defs>
		<clipPath id="SVGID_2_">
			<use xlink:href="#SVGID_1_"  style="overflow:visible;"/>
		</clipPath>
		<g class="st0">
			<g>
				
					<radialGradient id="SVGID_3_" cx="41.5615" cy="132.2652" r="81.3065" gradientTransform="matrix(0.9877 -0.1564 0.1564 0.9877 -5.8942 -70.5959)" gradientUnits="userSpaceOnUse">
					<stop  offset="0" style="stop-color:#71B4B8"/>
					<stop  offset="1" style="stop-color:#071E37"/>
				</radialGradient>
				<polygon class="st1" points="74.7,167 73,167.2 37,-59.9 38.7,-60.2 				"/>
				
					<radialGradient id="SVGID_4_" cx="41.5615" cy="132.2652" r="81.4373" gradientTransform="matrix(0.9877 -0.1564 0.1564 0.9877 -5.8942 -70.5959)" gradientUnits="userSpaceOnUse">
					<stop  offset="0" style="stop-color:#71B4B8"/>
					<stop  offset="1" style="stop-color:#071E37"/>
				</radialGradient>
				<polygon class="st2" points="84.7,164.8 25.2,-57.3 26.9,-57.8 86.5,164.4 				"/>
				
					<radialGradient id="SVGID_5_" cx="41.5615" cy="132.2652" r="81.5619" gradientTransform="matrix(0.9877 -0.1564 0.1564 0.9877 -5.8942 -70.5959)" gradientUnits="userSpaceOnUse">
					<stop  offset="0" style="stop-color:#71B4B8"/>
					<stop  offset="1" style="stop-color:#071E37"/>
				</radialGradient>
				<polygon class="st3" points="96.2,161.2 13.8,-53.5 15.5,-54.1 97.9,160.6 				"/>
				
					<radialGradient id="SVGID_6_" cx="41.5615" cy="132.2652" r="81.6752" gradientTransform="matrix(0.9877 -0.1564 0.1564 0.9877 -5.8942 -70.5959)" gradientUnits="userSpaceOnUse">
					<stop  offset="0" style="stop-color:#71B4B8"/>
					<stop  offset="1" style="stop-color:#071E37"/>
				</radialGradient>
				<polygon class="st4" points="107.3,156.4 2.9,-48.5 4.4,-49.3 108.8,155.6 				"/>
				
					<radialGradient id="SVGID_7_" cx="41.5615" cy="132.2652" r="81.7725" gradientTransform="matrix(0.9877 -0.1564 0.1564 0.9877 -5.8942 -70.5959)" gradientUnits="userSpaceOnUse">
					<stop  offset="0" style="stop-color:#71B4B8"/>
					<stop  offset="1" style="stop-color:#071E37"/>
				</radialGradient>
				<polygon class="st5" points="117.7,150.5 -7.5,-42.4 -6,-43.4 119.2,149.5 				"/>
				
					<radialGradient id="SVGID_8_" cx="41.5615" cy="132.2652" r="81.8492" gradientTransform="matrix(0.9877 -0.1564 0.1564 0.9877 -5.8942 -70.5959)" gradientUnits="userSpaceOnUse">
					<stop  offset="0" style="stop-color:#71B4B8"/>
					<stop  offset="1" style="stop-color:#071E37"/>
				</radialGradient>
				<polygon class="st6" points="127.5,143.5 -17.2,-35.3 -15.8,-36.4 128.9,142.3 				"/>
				
					<radialGradient id="SVGID_9_" cx="41.5615" cy="132.2652" r="81.9024" gradientTransform="matrix(0.9877 -0.1564 0.1564 0.9877 -5.8942 -70.5959)" gradientUnits="userSpaceOnUse">
					<stop  offset="0" style="stop-color:#71B4B8"/>
					<stop  offset="1" style="stop-color:#071E37"/>
				</radialGradient>
				<polygon class="st7" points="136.5,135.5 -26.1,-27.1 -24.8,-28.4 137.8,134.2 				"/>
				
					<radialGradient id="SVGID_10_" cx="41.5615" cy="132.2652" r="81.9295" gradientTransform="matrix(0.9877 -0.1564 0.1564 0.9877 -5.8942 -70.5959)" gradientUnits="userSpaceOnUse">
					<stop  offset="0" style="stop-color:#71B4B8"/>
					<stop  offset="1" style="stop-color:#071E37"/>
				</radialGradient>
				<polygon class="st8" points="144.6,126.6 -34.1,-18.1 -33,-19.5 145.8,125.2 				"/>
				
					<radialGradient id="SVGID_11_" cx="41.5615" cy="132.2652" r="81.9295" gradientTransform="matrix(0.9877 -0.1564 0.1564 0.9877 -5.8942 -70.5959)" gradientUnits="userSpaceOnUse">
					<stop  offset="0" style="stop-color:#71B4B8"/>
					<stop  offset="1" style="stop-color:#071E37"/>
				</radialGradient>
				<polygon class="st9" points="151.8,116.9 -41.1,-8.3 -40.1,-9.8 152.8,115.4 				"/>
				
					<radialGradient id="SVGID_12_" cx="41.5615" cy="132.2652" r="81.9024" gradientTransform="matrix(0.9877 -0.1564 0.1564 0.9877 -5.8942 -70.5959)" gradientUnits="userSpaceOnUse">
					<stop  offset="0" style="stop-color:#71B4B8"/>
					<stop  offset="1" style="stop-color:#071E37"/>
				</radialGradient>
				<polygon class="st10" points="157.9,106.5 -47,2.1 -46.2,0.5 158.7,104.9 				"/>
				
					<radialGradient id="SVGID_13_" cx="41.5615" cy="132.2652" r="81.8492" gradientTransform="matrix(0.9877 -0.1564 0.1564 0.9877 -5.8942 -70.5959)" gradientUnits="userSpaceOnUse">
					<stop  offset="0" style="stop-color:#71B4B8"/>
					<stop  offset="1" style="stop-color:#071E37"/>
				</radialGradient>
				<polygon class="st11" points="162.9,95.6 -51.8,13.2 -51.2,11.5 163.5,93.9 				"/>
				
					<radialGradient id="SVGID_14_" cx="41.5615" cy="132.2652" r="81.7725" gradientTransform="matrix(0.9877 -0.1564 0.1564 0.9877 -5.8942 -70.5959)" gradientUnits="userSpaceOnUse">
					<stop  offset="0" style="stop-color:#71B4B8"/>
					<stop  offset="1" style="stop-color:#071E37"/>
				</radialGradient>
				<polygon class="st12" points="166.7,84.2 -55.4,24.6 -55,22.9 167.1,82.4 				"/>
				
					<radialGradient id="SVGID_15_" cx="41.5615" cy="132.2652" r="81.6752" gradientTransform="matrix(0.9877 -0.1564 0.1564 0.9877 -5.8942 -70.5959)" gradientUnits="userSpaceOnUse">
					<stop  offset="0" style="stop-color:#71B4B8"/>
					<stop  offset="1" style="stop-color:#071E37"/>
				</radialGradient>
				<polygon class="st13" points="169.3,72.4 -57.9,36.4 -57.6,34.7 169.6,70.6 				"/>
				
					<radialGradient id="SVGID_16_" cx="41.5615" cy="132.2652" r="81.5619" gradientTransform="matrix(0.9877 -0.1564 0.1564 0.9877 -5.8942 -70.5959)" gradientUnits="userSpaceOnUse">
					<stop  offset="0" style="stop-color:#71B4B8"/>
					<stop  offset="1" style="stop-color:#071E37"/>
				</radialGradient>
				<polygon class="st14" points="170.6,60.4 -59,48.4 -58.9,46.6 170.7,58.7 				"/>
				
					<radialGradient id="SVGID_17_" cx="41.5615" cy="132.2652" r="81.4373" gradientTransform="matrix(0.9877 -0.1564 0.1564 0.9877 -5.8942 -70.5959)" gradientUnits="userSpaceOnUse">
					<stop  offset="0" style="stop-color:#71B4B8"/>
					<stop  offset="1" style="stop-color:#071E37"/>
				</radialGradient>
				<polygon class="st15" points="170.7,48.4 -58.9,60.4 -59,58.7 170.6,46.6 				"/>
				
					<radialGradient id="SVGID_18_" cx="41.5615" cy="132.2652" r="81.3065" gradientTransform="matrix(0.9877 -0.1564 0.1564 0.9877 -5.8942 -70.5959)" gradientUnits="userSpaceOnUse">
					<stop  offset="0" style="stop-color:#71B4B8"/>
					<stop  offset="1" style="stop-color:#071E37"/>
				</radialGradient>
				<polygon class="st16" points="169.6,36.4 -57.6,72.4 -57.9,70.6 169.3,34.7 				"/>
				
					<radialGradient id="SVGID_19_" cx="41.5615" cy="132.2652" r="81.4373" gradientTransform="matrix(0.9877 -0.1564 0.1564 0.9877 -5.8942 -70.5959)" gradientUnits="userSpaceOnUse">
					<stop  offset="0" style="stop-color:#71B4B8"/>
					<stop  offset="1" style="stop-color:#071E37"/>
				</radialGradient>
				<polygon class="st17" points="-55,84.2 -55.4,82.4 166.7,22.9 167.1,24.6 				"/>
				
					<radialGradient id="SVGID_20_" cx="41.5615" cy="132.2652" r="81.5619" gradientTransform="matrix(0.9877 -0.1564 0.1564 0.9877 -5.8942 -70.5959)" gradientUnits="userSpaceOnUse">
					<stop  offset="0" style="stop-color:#71B4B8"/>
					<stop  offset="1" style="stop-color:#071E37"/>
				</radialGradient>
				<polygon class="st18" points="-51.2,95.6 -51.8,93.9 162.9,11.5 163.5,13.2 				"/>
				
					<radialGradient id="SVGID_21_" cx="41.5615" cy="132.2652" r="81.6752" gradientTransform="matrix(0.9877 -0.1564 0.1564 0.9877 -5.8942 -70.5959)" gradientUnits="userSpaceOnUse">
					<stop  offset="0" style="stop-color:#71B4B8"/>
					<stop  offset="1" style="stop-color:#071E37"/>
				</radialGradient>
				<polygon class="st19" points="-46.2,106.5 -47,104.9 157.9,0.5 158.7,2.1 				"/>
				
					<radialGradient id="SVGID_22_" cx="41.5615" cy="132.2652" r="81.7725" gradientTransform="matrix(0.9877 -0.1564 0.1564 0.9877 -5.8942 -70.5959)" gradientUnits="userSpaceOnUse">
					<stop  offset="0" style="stop-color:#71B4B8"/>
					<stop  offset="1" style="stop-color:#071E37"/>
				</radialGradient>
				<polygon class="st20" points="-40.1,116.9 -41.1,115.4 151.8,-9.8 152.8,-8.3 				"/>
				
					<radialGradient id="SVGID_23_" cx="41.5615" cy="132.2652" r="81.8492" gradientTransform="matrix(0.9877 -0.1564 0.1564 0.9877 -5.8942 -70.5959)" gradientUnits="userSpaceOnUse">
					<stop  offset="0" style="stop-color:#71B4B8"/>
					<stop  offset="1" style="stop-color:#071E37"/>
				</radialGradient>
				<polygon class="st21" points="-33,126.6 -34.1,125.2 144.6,-19.5 145.8,-18.1 				"/>
				
					<radialGradient id="SVGID_24_" cx="41.5615" cy="132.2652" r="81.9024" gradientTransform="matrix(0.9877 -0.1564 0.1564 0.9877 -5.8942 -70.5959)" gradientUnits="userSpaceOnUse">
					<stop  offset="0" style="stop-color:#71B4B8"/>
					<stop  offset="1" style="stop-color:#071E37"/>
				</radialGradient>
				<polygon class="st22" points="-24.8,135.5 -26.1,134.2 136.5,-28.4 137.8,-27.1 				"/>
				
					<radialGradient id="SVGID_25_" cx="41.5615" cy="132.2652" r="81.9295" gradientTransform="matrix(0.9877 -0.1564 0.1564 0.9877 -5.8942 -70.5959)" gradientUnits="userSpaceOnUse">
					<stop  offset="0" style="stop-color:#71B4B8"/>
					<stop  offset="1" style="stop-color:#071E37"/>
				</radialGradient>
				<polygon class="st23" points="-15.8,143.5 -17.2,142.3 127.5,-36.4 128.9,-35.3 				"/>
				
					<radialGradient id="SVGID_26_" cx="41.5615" cy="132.2652" r="81.9295" gradientTransform="matrix(0.9877 -0.1564 0.1564 0.9877 -5.8942 -70.5959)" gradientUnits="userSpaceOnUse">
					<stop  offset="0" style="stop-color:#71B4B8"/>
					<stop  offset="1" style="stop-color:#071E37"/>
				</radialGradient>
				<polygon class="st24" points="-6,150.5 -7.5,149.5 117.7,-43.4 119.2,-42.4 				"/>
				
					<radialGradient id="SVGID_27_" cx="41.5615" cy="132.2652" r="81.9024" gradientTransform="matrix(0.9877 -0.1564 0.1564 0.9877 -5.8942 -70.5959)" gradientUnits="userSpaceOnUse">
					<stop  offset="0" style="stop-color:#71B4B8"/>
					<stop  offset="1" style="stop-color:#071E37"/>
				</radialGradient>
				<polygon class="st25" points="4.4,156.4 2.9,155.6 107.3,-49.3 108.8,-48.5 				"/>
				
					<radialGradient id="SVGID_28_" cx="41.5615" cy="132.2652" r="81.8492" gradientTransform="matrix(0.9877 -0.1564 0.1564 0.9877 -5.8942 -70.5959)" gradientUnits="userSpaceOnUse">
					<stop  offset="0" style="stop-color:#71B4B8"/>
					<stop  offset="1" style="stop-color:#071E37"/>
				</radialGradient>
				<polygon class="st26" points="15.5,161.2 13.8,160.6 96.2,-54.1 97.9,-53.5 				"/>
				
					<radialGradient id="SVGID_29_" cx="41.5615" cy="132.2652" r="81.7725" gradientTransform="matrix(0.9877 -0.1564 0.1564 0.9877 -5.8942 -70.5959)" gradientUnits="userSpaceOnUse">
					<stop  offset="0" style="stop-color:#71B4B8"/>
					<stop  offset="1" style="stop-color:#071E37"/>
				</radialGradient>
				<polygon class="st27" points="26.9,164.8 25.2,164.4 84.7,-57.8 86.5,-57.3 				"/>
				
					<radialGradient id="SVGID_30_" cx="41.5615" cy="132.2652" r="81.6752" gradientTransform="matrix(0.9877 -0.1564 0.1564 0.9877 -5.8942 -70.5959)" gradientUnits="userSpaceOnUse">
					<stop  offset="0" style="stop-color:#71B4B8"/>
					<stop  offset="1" style="stop-color:#071E37"/>
				</radialGradient>
				<polygon class="st28" points="38.7,167.2 37,167 73,-60.2 74.7,-59.9 				"/>
				
					<radialGradient id="SVGID_31_" cx="41.5615" cy="132.2652" r="81.5619" gradientTransform="matrix(0.9877 -0.1564 0.1564 0.9877 -5.8942 -70.5959)" gradientUnits="userSpaceOnUse">
					<stop  offset="0" style="stop-color:#71B4B8"/>
					<stop  offset="1" style="stop-color:#071E37"/>
				</radialGradient>
				<polygon class="st29" points="50.7,168.4 48.9,168.3 61,-61.3 62.8,-61.2 				"/>
				
					<radialGradient id="SVGID_32_" cx="41.5615" cy="132.2652" r="81.4373" gradientTransform="matrix(0.9877 -0.1564 0.1564 0.9877 -5.8942 -70.5959)" gradientUnits="userSpaceOnUse">
					<stop  offset="0" style="stop-color:#71B4B8"/>
					<stop  offset="1" style="stop-color:#071E37"/>
				</radialGradient>
				<polygon class="st30" points="62.8,168.3 61,168.4 48.9,-61.2 50.7,-61.3 				"/>
			</g>
		</g>
	</g>
	<linearGradient id="SVGID_33_" gradientUnits="userSpaceOnUse" x1="69.2182" y1="53.7423" x2="318.1114" y2="53.7423">
		<stop  offset="0" style="stop-color:#A5D7D3"/>
		<stop  offset="0.8592" style="stop-color:#A5D7D3;stop-opacity:0.1408"/>
		<stop  offset="1" style="stop-color:#A5D7D3;stop-opacity:0"/>
	</linearGradient>
	<line class="st31" x1="69.2" y1="53.7" x2="318.1" y2="53.7"/>
	<circle class="st32" cx="58.6" cy="53.6" r="10.7"/>
	<g>
		<path class="st33" d="M136.4,29.8V66h-4.6v-6.2c-1.9,2.4-4.1,4.2-6.6,5.3c-2.4,1.2-5.1,1.8-8,1.8c-5.1,0-9.5-1.9-13.1-5.6
			c-3.6-3.7-5.4-8.2-5.4-13.5c0-5.2,1.8-9.7,5.5-13.3c3.7-3.7,8-5.5,13.2-5.5c3,0,5.7,0.6,8.1,1.9c2.4,1.3,4.5,3.2,6.3,5.7v-6.6
			H136.4z M117.8,33.4c-2.6,0-5,0.6-7.2,1.9c-2.2,1.3-3.9,3.1-5.2,5.4c-1.3,2.3-1.9,4.7-1.9,7.3c0,2.5,0.7,5,2,7.3
			c1.3,2.3,3.1,4.1,5.3,5.4c2.2,1.3,4.6,1.9,7.1,1.9c2.5,0,5-0.6,7.2-1.9c2.3-1.3,4-3,5.3-5.2c1.2-2.2,1.8-4.7,1.8-7.4
			c0-4.2-1.4-7.7-4.1-10.5C125.2,34.8,121.9,33.4,117.8,33.4z"/>
		<path class="st33" d="M146.2,15.9h4.6V66h-4.6V15.9z"/>
		<path class="st34" d="M162.1,18.1c1.5,0,2.7,0.5,3.7,1.6c1,1,1.5,2.3,1.5,3.7c0,1.4-0.5,2.7-1.5,3.7c-1,1-2.3,1.6-3.7,1.6
			c-1.4,0-2.7-0.5-3.7-1.6c-1-1-1.5-2.3-1.5-3.7c0-1.5,0.5-2.7,1.5-3.7C159.4,18.7,160.7,18.1,162.1,18.1z"/>
		<rect x="159.8" y="31.7" class="st33" width="4.6" height="34.3"/>
		<path class="st33" d="M210.2,15.9V66h-4.6v-6.2c-1.9,2.4-4.1,4.2-6.6,5.3c-2.4,1.2-5.1,1.8-8,1.8c-5.1,0-9.5-1.9-13.1-5.6
			c-3.6-3.7-5.4-8.2-5.4-13.5c0-5.2,1.8-9.7,5.5-13.3c3.7-3.7,8-5.5,13.2-5.5c3,0,5.7,0.6,8.1,1.9c2.4,1.3,4.5,3.2,6.3,5.7V15.9
			H210.2z M191.6,33.4c-2.6,0-5,0.6-7.2,1.9c-2.2,1.3-3.9,3.1-5.2,5.4c-1.3,2.3-1.9,4.7-1.9,7.3c0,2.5,0.7,5,2,7.3
			c1.3,2.3,3.1,4.1,5.3,5.4c2.2,1.3,4.6,1.9,7.1,1.9c2.5,0,5-0.6,7.2-1.9c2.3-1.3,4-3,5.3-5.2c1.2-2.2,1.8-4.7,1.8-7.4
			c0-4.2-1.4-7.7-4.1-10.5C199,34.8,195.6,33.4,191.6,33.4z"/>
		<path class="st33" d="M218.9,29.8h4.7v5.3c1.4-2.1,2.9-3.6,4.5-4.7c1.6-1,3.2-1.5,4.9-1.5c1.3,0,2.7,0.4,4.1,1.2l-2.4,3.9
			c-1-0.4-1.8-0.6-2.5-0.6c-1.6,0-3,0.6-4.5,1.9c-1.4,1.3-2.5,3.2-3.3,5.9c-0.6,2.1-0.9,6.2-0.9,12.5V66h-4.7V29.8z"/>
		<path class="st33" d="M277.1,29.8V66h-4.6v-6.2c-1.9,2.4-4.1,4.2-6.6,5.3c-2.4,1.2-5.1,1.8-8,1.8c-5.1,0-9.5-1.9-13.1-5.6
			c-3.6-3.7-5.4-8.2-5.4-13.5c0-5.2,1.8-9.7,5.5-13.3c3.7-3.7,8-5.5,13.2-5.5c3,0,5.7,0.6,8.1,1.9c2.4,1.3,4.5,3.2,6.3,5.7v-6.6
			H277.1z M258.6,33.4c-2.6,0-5,0.6-7.2,1.9c-2.2,1.3-3.9,3.1-5.2,5.4c-1.3,2.3-1.9,4.7-1.9,7.3c0,2.5,0.7,5,2,7.3
			c1.3,2.3,3.1,4.1,5.3,5.4c2.2,1.3,4.6,1.9,7.1,1.9c2.5,0,5-0.6,7.2-1.9c2.3-1.3,4-3,5.3-5.2c1.2-2.2,1.8-4.7,1.8-7.4
			c0-4.2-1.4-7.7-4.1-10.5C266,34.8,262.6,33.4,258.6,33.4z"/>
		<g>
			<defs>
				<polygon id="SVGID_34_" points="318.2,29.9 301.1,69 283.7,29.9 				"/>
			</defs>
			<clipPath id="SVGID_35_">
				<use xlink:href="#SVGID_34_"  style="overflow:visible;"/>
			</clipPath>
			<g class="st35">
				<line class="st36" x1="273.7" y1="6.6" x2="301.8" y2="68.8"/>
				<line class="st36" x1="275.1" y1="5.5" x2="303.2" y2="67.7"/>
				<line class="st36" x1="276.4" y1="4.5" x2="304.5" y2="66.7"/>
			</g>
		</g>
		<path class="st33" d="M313.6,29.8h4.9l-31.3,72h-4.9L313.6,29.8z"/>
	</g>
	<g>
		<path class="st33" d="M198.1,84.3c-0.1,2.3-0.3,4.2-0.5,5.7c-0.6-0.1-1.1-0.2-1.7-0.3c0.3-1.9,0.5-3.7,0.6-5.6L198.1,84.3z
			 M198.9,78.6h1.8v5.1l1.1-0.7c0.9,1.1,1.6,2.2,2.3,3.2l-1.5,0.9c-0.6-1.1-1.2-2.1-1.9-3v18.2h-1.8V78.6z M206.3,94.5v3.8
			c0,1,0.5,1.5,1.5,1.5h7.5c1.3,0,2-0.4,2.2-1.2c0.2-0.7,0.4-1.6,0.5-2.7c0.6,0.3,1.2,0.5,1.9,0.8c-0.3,1.3-0.5,2.2-0.7,2.6
			c-0.4,1.5-1.5,2.2-3.5,2.2h-8.5c-2,0-3-1-3-3.1v-5.6h11.4v-3.7h-11.7v-1.7h13.6v7.9h-1.9v-0.8H206.3z M216.5,86.1v-1h-12.2v-5.2
			h1.7v3.5h4.4v-4.8h1.7v4.8h4.4v-3.5h1.7v6.2H216.5z"/>
		<path class="st33" d="M224.8,99h12.6c1.9-3.6,3.6-8,5.3-13l2.2,0.8c-1.7,4.5-3.4,8.6-5.1,12.2h8.5v1.9h-23.4V99z"/>
		<rect x="225.4" y="83.1" class="st33" width="22.2" height="1.9"/>
		<path class="st33" d="M228.3,87l1.9-0.8c1.5,3.4,2.9,6.9,4.2,10.4l-2.2,0.9C231,93.7,229.6,90.2,228.3,87z"/>
		<path class="st33" d="M263.1,100c4.5,0,9.1,0,14-0.1c-0.3,0.6-0.5,1.3-0.8,1.9c-4.4,0.1-8.9,0.1-13.5,0c-2.7,0-4.7-1-6-2.8
			c-0.5,0.4-1.4,1.4-2.8,3.1l-1-2.1c1-0.9,2-1.8,3-2.6V89h-2.8v-1.8h4.7v10.6C259,99.2,260.8,100,263.1,100z M255.4,78.8
			c1.4,1.7,2.6,3.3,3.7,4.7l-1.7,1.2c-1.1-1.6-2.2-3.2-3.5-4.8L255.4,78.8z M259.9,84.4h6.7v-5.7h1.9v5.7h7.6v1.8h-7.6
			c-0.1,1.2-0.2,2.3-0.5,3.3c2.8,2.2,5.4,4.6,7.9,7.2l-1.5,1.6c-2.2-2.5-4.5-4.8-7-7.1c-1.2,3.2-3.4,5.7-6.8,7.6
			c-0.4-0.6-0.9-1.1-1.4-1.6c4.4-2.4,6.8-6.1,7.2-11h-6.6V84.4z"/>
		<path class="st34" d="M236.2,76c0.8,0,1.4,0.3,1.9,0.8c0.5,0.5,0.8,1.2,0.8,1.9c0,0.7-0.3,1.4-0.8,1.9c-0.5,0.5-1.2,0.8-1.9,0.8
			c-0.7,0-1.4-0.3-1.9-0.8c-0.5-0.5-0.8-1.2-0.8-1.9c0-0.8,0.3-1.4,0.8-1.9C234.8,76.3,235.4,76,236.2,76z"/>
	</g>
</g>
</svg>
