<svg id="图层_1" data-name="图层 1" xmlns="http://www.w3.org/2000/svg" viewBox="0 0 32 32"><defs><style>.cls-1{fill:#1ea6bb;}.cls-2{fill:#666;}</style></defs><title>PC图标</title><path class="cls-1" d="M16,11.31A5.05,5.05,0,1,1,21,6.26,5.05,5.05,0,0,1,16,11.31Zm0-8.44a3.39,3.39,0,1,0,3.39,3.39A3.41,3.41,0,0,0,16,2.87Z"/><path class="cls-1" d="M21.13,12.8a.75.75,0,0,1-.46-.14,8.67,8.67,0,0,0-9.11,0,.89.89,0,0,1-.94-1.51,10.3,10.3,0,0,1,11,0,.89.89,0,0,1,.28,1.22A.79.79,0,0,1,21.13,12.8Z"/><path class="cls-2" d="M9.25,21.81a5.39,5.39,0,1,1,5.39-5.39A5.39,5.39,0,0,1,9.25,21.81Zm0-9a3.62,3.62,0,1,0,3.62,3.62A3.63,3.63,0,0,0,9.25,12.8Z"/><path class="cls-2" d="M.83,30.79A.82.82,0,0,1,0,30a9.77,9.77,0,0,1,16.34-7.21A.84.84,0,1,1,15.21,24,8.1,8.1,0,0,0,1.66,30,.82.82,0,0,1,.83,30.79Zm21.31-9.31a5.05,5.05,0,1,1,5.05-5.05A5.05,5.05,0,0,1,22.14,21.49Zm0-8.44a3.39,3.39,0,1,0,3.39,3.39A3.41,3.41,0,0,0,22.14,13Z"/><path class="cls-2" d="M31.17,30.79a.82.82,0,0,1-.83-.83,8.1,8.1,0,1,0-16.19,0,.83.83,0,0,1-1.66,0A9.76,9.76,0,1,1,32,30,.82.82,0,0,1,31.17,30.79Z"/></svg>