<?xml version="1.0" encoding="utf-8"?>
<!-- Generator: Adobe Illustrator 21.0.0, SVG Export Plug-In . SVG Version: 6.00 Build 0)  -->
<svg version="1.1" id="图层_1" xmlns="http://www.w3.org/2000/svg" xmlns:xlink="http://www.w3.org/1999/xlink" x="0px" y="0px"
	 viewBox="0 0 34 34" enable-background="new 0 0 34 34" xml:space="preserve">
<g>
	<g>
		<defs>
			<rect id="SVGID_1_" x="4.588" width="25.473" height="34"/>
		</defs>
		<clipPath id="SVGID_2_">
			<use xlink:href="#SVGID_1_"  overflow="visible"/>
		</clipPath>
		<rect x="6" y="9.25" clip-path="url(#SVGID_2_)" fill="#ADD7DA" width="23.083" height="23.083"/>
		<path clip-path="url(#SVGID_2_)" fill="#021F39" d="M8.825,2.143h21.211V0.022H8.825c-2.333,0-4.242,1.909-4.242,4.242v25.453
			c0,2.333,1.909,4.242,4.242,4.242h21.211V8.506H8.825c-1.273,0-2.121-0.848-2.121-2.121h23.332V4.264H6.704
			C6.704,2.991,7.553,2.143,8.825,2.143L8.825,2.143z M21.552,10.627v7.636l-0.636-0.636l-1.485-1.485l-2.121,2.121v-7.636H21.552z
			 M8.825,10.627h6.363v12.726l4.242-4.242l4.242,4.242V10.627h4.242v21.211H8.825c-1.273,0-2.121-0.848-2.121-2.121V9.991
			C7.341,10.415,7.977,10.627,8.825,10.627L8.825,10.627z M8.825,10.627"/>
	</g>
</g>
</svg>
