<svg id="图层_1" data-name="图层 1" xmlns="http://www.w3.org/2000/svg" viewBox="0 0 32 32"><defs><style>.cls-1{fill:#1ea6bb;}.cls-2{fill:#666;}</style></defs><title>PC图标</title><path class="cls-1" d="M11.05,22.1a5.53,5.53,0,1,1,5.53-5.53A5.53,5.53,0,0,1,11.05,22.1Zm0-9.4a3.88,3.88,0,1,0,3.88,3.88A3.87,3.87,0,0,0,11.05,12.7Z"/><path class="cls-1" d="M11,12a.82.82,0,0,1-.82-.82V9.42a.82.82,0,0,1,1.65,0v1.72A.82.82,0,0,1,11,12Z"/><path class="cls-1" d="M7.14,13.58a.85.85,0,0,1-.58-.23l-1.2-1.19A.83.83,0,0,1,6.53,11l1.2,1.19a.82.82,0,0,1,0,1.17A.9.9,0,0,1,7.14,13.58Z"/><path class="cls-1" d="M5.58,17.47H3.88a.82.82,0,1,1,0-1.65h1.7a.82.82,0,1,1,0,1.65Z"/><path class="cls-1" d="M6,22.53a.85.85,0,0,1-.58-.23.82.82,0,0,1,0-1.17l1.22-1.24a.83.83,0,1,1,1.17,1.17L6.6,22.3A.9.9,0,0,1,6,22.53Z"/><path class="cls-1" d="M11.08,24.58a.82.82,0,0,1-.82-.82V22.07a.82.82,0,0,1,1.65,0v1.68A.82.82,0,0,1,11.08,24.58Z"/><path class="cls-1" d="M16.12,22.45a.84.84,0,0,1-.59-.25L14.33,21a.83.83,0,0,1,1.17-1.17L16.69,21a.85.85,0,0,1,0,1.17A.8.8,0,0,1,16.12,22.45Z"/><path class="cls-1" d="M18.23,17.37H16.49a.82.82,0,1,1,0-1.65h1.73a.82.82,0,0,1,0,1.65Z"/><path class="cls-1" d="M14.88,13.53a.84.84,0,0,1-.59-.25.85.85,0,0,1,0-1.17l1.2-1.19a.83.83,0,0,1,1.17,1.17l-1.2,1.19A.8.8,0,0,1,14.88,13.53Z"/><path class="cls-2" d="M26.28,15.42H22.63a.8.8,0,0,1-.71-.41l-1.85-3.17a.82.82,0,0,1,0-.82l1.85-3.17a.83.83,0,0,1,.71-.41h3.65a.83.83,0,0,1,.71.41L28.82,11a.82.82,0,0,1,0,.82L27,15A.83.83,0,0,1,26.28,15.42Zm-3.17-1.65H25.8l1.35-2.34L25.8,9.09H23.11l-1.37,2.34Z"/><path class="cls-2" d="M26.28,25.81H22.63a.8.8,0,0,1-.71-.41l-1.85-3.18a.82.82,0,0,1,0-.82l1.85-3.15a.83.83,0,0,1,.71-.41h3.65a.8.8,0,0,1,.71.41l1.83,3.15a.82.82,0,0,1,0,.82L27,25.4A.83.83,0,0,1,26.28,25.81Zm-3.17-1.65H25.8l1.35-2.36L25.8,19.48H23.09l-1.37,2.33Z"/><path class="cls-2" d="M31.18,32H.82A.82.82,0,0,1,0,31.18V.82A.82.82,0,0,1,.82,0H31.18A.82.82,0,0,1,32,.82V31.18a.82.82,0,0,1-.82.82ZM1.65,30.35h28.7V1.65H1.65Z"/></svg>