<svg id="图层_1" data-name="图层 1" xmlns="http://www.w3.org/2000/svg" viewBox="0 0 32 32"><defs><style>.cls-1{fill:#666;}.cls-2{fill:#1ea6bb;}</style></defs><title>PC图标</title><path class="cls-1" d="M13.82,32H2a.86.86,0,0,1-.86-.86V19.3A.86.86,0,0,1,2,18.44H13.82a.86.86,0,0,1,.86.86V31.14a.86.86,0,0,1-.86.86Zm-11-1.73H13V20.17H2.85Z"/><path class="cls-2" d="M9.63,24.72h-4a.86.86,0,1,1,0-1.73h4a.86.86,0,1,1,0,1.73Z"/><path class="cls-1" d="M30,32H18.18a.86.86,0,0,1-.86-.86V19.3a.86.86,0,0,1,.86-.86H30a.86.86,0,0,1,.86.86V31.14A.86.86,0,0,1,30,32ZM19,30.27h10.1V20.17H19Z"/><path class="cls-2" d="M25.82,24.72h-4a.86.86,0,1,1,0-1.73h4a.86.86,0,0,1,0,1.73Z"/><path class="cls-1" d="M22.19,13.56H10.36a.86.86,0,0,1-.86-.86V.86A.86.86,0,0,1,10.36,0H22.19a.86.86,0,0,1,.86.86V12.7a.86.86,0,0,1-.86.86Zm-11-1.73h10.1V1.73H11.23Z"/><path class="cls-2" d="M18,6.28H14a.86.86,0,0,1,0-1.73h4a.86.86,0,0,1,0,1.73Z"/><path class="cls-2" d="M30,16.86H2.16a.86.86,0,1,1,0-1.73H30a.86.86,0,0,1,0,1.73Z"/></svg>