<svg id="图层_1" data-name="图层 1" xmlns="http://www.w3.org/2000/svg" viewBox="0 0 32 32"><defs><style>.cls-1{fill:#666;}.cls-2{fill:#1ea6bb;}</style></defs><title>PC图标</title><path class="cls-1" d="M19.77,27.57a.86.86,0,0,1-.87-.87V19.39a3.07,3.07,0,0,0-3.07-3.07A4.81,4.81,0,0,1,11,11.5V4.88a.87.87,0,1,1,1.74,0V11.5a3.07,3.07,0,0,0,3.07,3.07,4.81,4.81,0,0,1,4.81,4.81V26.7a.86.86,0,0,1-.87.87Z"/><path class="cls-1" d="M14.16,7.37a.81.81,0,0,1-.61-.26L11.88,5.44,10.2,7.11A.87.87,0,1,1,9,5.87L11.26,3.6a.89.89,0,0,1,1.23,0l2.28,2.28a.86.86,0,0,1,0,1.23A.81.81,0,0,1,14.16,7.37Z"/><path class="cls-2" d="M11.87,27.57A.86.86,0,0,1,11,26.7V19.39a4.81,4.81,0,0,1,4.81-4.81,3.07,3.07,0,0,0,3.07-3.07V4.88a.87.87,0,1,1,1.74,0V11.5a4.81,4.81,0,0,1-4.81,4.81,3.07,3.07,0,0,0-3.07,3.07V26.7a.86.86,0,0,1-.87.87Z"/><path class="cls-2" d="M22,7.37a.84.84,0,0,1-.61-.26L19.75,5.44,18.08,7.11a.87.87,0,0,1-1.23-1.23L19.13,3.6a.88.88,0,0,1,1.23,0l2.29,2.28a.86.86,0,0,1,0,1.23.81.81,0,0,1-.61.26Z"/><path class="cls-2" d="M11.88,28.7a.84.84,0,0,1-.61-.26L9,26.16a.87.87,0,1,1,1.23-1.23L11.9,26.6l1.67-1.67a.87.87,0,1,1,1.23,1.23l-2.28,2.28A1,1,0,0,1,11.88,28.7Z"/><path class="cls-1" d="M19.75,28.7a.81.81,0,0,1-.61-.26l-2.28-2.28a.87.87,0,1,1,1.23-1.23l1.67,1.67,1.69-1.67a.89.89,0,0,1,1.23,0,.88.88,0,0,1,0,1.23L20.4,28.44a1,1,0,0,1-.64.26Z"/><path class="cls-1" d="M31.13,32H.87A.86.86,0,0,1,0,31.13V.87A.86.86,0,0,1,.87,0H31.13A.86.86,0,0,1,32,.87V31.13a.86.86,0,0,1-.87.87ZM1.74,30.26H30.26V1.74H1.74V30.26Z"/></svg>