<svg id="图层_1" data-name="图层 1" xmlns="http://www.w3.org/2000/svg" viewBox="0 0 32 32"><defs><style>.cls-1{fill:#666;}.cls-2{fill:#1ea6bb;}</style></defs><title>PC图标</title><path class="cls-1" d="M28.83,8.49H3.18A3.19,3.19,0,0,1,0,5.31V4.48A3.19,3.19,0,0,1,3.18,1.3H28.82A3.19,3.19,0,0,1,32,4.48v.83a3.12,3.12,0,0,1-.91,2.24,3.2,3.2,0,0,1-2.26.94ZM3.18,2.92A1.58,1.58,0,0,0,1.62,4.48v.83A1.58,1.58,0,0,0,3.18,6.86H28.83a1.52,1.52,0,0,0,1.1-.47,1.46,1.46,0,0,0,.44-1.09V4.46A1.58,1.58,0,0,0,28.82,2.9H3.18Z"/><circle class="cls-2" cx="16.07" cy="4.89" r="1.25"/><path class="cls-2" d="M16,21.65a.82.82,0,0,1-.39-.1L9.29,18a.87.87,0,0,1-.42-.7.85.85,0,0,1,.39-.71l6.32-3.85a.79.79,0,0,1,.84,0l6.32,3.85a.83.83,0,0,1,.39.71.8.8,0,0,1-.42.7l-6.32,3.54a.82.82,0,0,1-.39.1Zm-4.71-4.38L16,19.9l4.71-2.63L16,14.39l-4.71,2.87Z"/><path class="cls-2" d="M16.11,26.23a.82.82,0,0,1-.39-.1L13.35,24.8l-4-2.21a.83.83,0,0,1-.42-.7.85.85,0,0,1,.39-.71l4.32-2.63.84,1.38-3.13,1.92,4.72,2.65,4.71-2.63L17.7,20l.84-1.38,4.3,2.61a.83.83,0,0,1,.39.71.8.8,0,0,1-.42.7l-6.32,3.54a1,1,0,0,1-.39.08Z"/><path class="cls-1" d="M31.19,30.81H.81A.8.8,0,0,1,0,30V4.36H1.62V29.18H30.38V4.36H32V30A.8.8,0,0,1,31.19,30.81Z"/></svg>