<?xml version="1.0" encoding="utf-8"?>
<!-- Generator: Adobe Illustrator 21.0.0, SVG Export Plug-In . SVG Version: 6.00 Build 0)  -->
<svg version="1.1" id="图层_1" xmlns="http://www.w3.org/2000/svg" xmlns:xlink="http://www.w3.org/1999/xlink" x="0px" y="0px"
	 viewBox="0 0 34 34" enable-background="new 0 0 34 34" xml:space="preserve">
<g>
	<polygon fill="#ADD7DA" points="16.375,20.438 24.384,12.188 32,12.188 32.625,19.688 24.384,28.188 	"/>
	<g>
		<defs>
			<rect id="SVGID_1_" x="0.123" y="0.125" width="33.753" height="33.75"/>
		</defs>
		<clipPath id="SVGID_2_">
			<use xlink:href="#SVGID_1_"  overflow="visible"/>
		</clipPath>
		<line clip-path="url(#SVGID_2_)" fill="#ADD7DA" x1="17.314" y1="18.188" x2="17.314" y2="9.813"/>
		<path clip-path="url(#SVGID_2_)" fill="#021F39" d="M30.687,10.7h-5.158c-0.842,0-1.635,0.329-2.231,0.924l-6.889,6.885
			c-0.595,0.595-0.924,1.388-0.924,2.234c0,0.842,0.329,1.635,0.924,2.231l5.168,5.158c0.615,0.615,1.421,0.921,2.23,0.921
			c0.809,0,1.615-0.306,2.231-0.921l6.879-6.876c0.595-0.595,0.924-1.388,0.924-2.23v-5.172C33.842,12.115,32.427,10.7,30.687,10.7
			L30.687,10.7z M31.737,19.023c0,0.28-0.109,0.543-0.306,0.744l-6.882,6.879c-0.408,0.408-1.076,0.408-1.484,0l-5.168-5.158
			c-0.197-0.197-0.309-0.461-0.309-0.744c0-0.28,0.109-0.546,0.306-0.743l6.889-6.886c0.197-0.197,0.461-0.306,0.743-0.306h5.158
			c0.579,0,1.049,0.47,1.049,1.049v5.165H31.737z M31.737,19.023"/>
		<path clip-path="url(#SVGID_2_)" fill="#021F39" d="M22.226,30.376c-0.582,0-1.053,0.47-1.053,1.053v0.299H2.224v-5.313
			c0-5.224,4.25-9.475,9.475-9.475c0.829,0,1.651,0.109,2.444,0.319c0.092,0.023,0.181,0.036,0.273,0.036
			c0.464,0,0.891-0.312,1.016-0.783c0.063-0.237,0.04-0.477-0.049-0.688c2.721-1.355,4.589-4.162,4.589-7.409
			c-0.003-4.566-3.704-8.271-8.274-8.271c-4.57,0-8.271,3.704-8.271,8.271c0,3.069,1.671,5.747,4.152,7.175
			c-0.128,0.049-0.26,0.102-0.388,0.154c-1.378,0.582-2.619,1.418-3.681,2.481C2.448,19.29,1.612,20.53,1.03,21.908
			c-0.605,1.428-0.911,2.944-0.911,4.507v5.583c0,1.013,0.822,1.836,1.832,1.836h19.492c1.01,0,1.832-0.822,1.832-1.832v-0.573
			C23.279,30.847,22.808,30.376,22.226,30.376L22.226,30.376z M5.533,8.417c0-1.648,0.642-3.194,1.806-4.359
			c1.165-1.165,2.711-1.806,4.359-1.806c1.648,0,3.194,0.642,4.359,1.806c1.165,1.165,1.806,2.714,1.806,4.359
			c0,1.648-0.641,3.194-1.806,4.359c-1.165,1.165-2.714,1.806-4.359,1.806c-1.648,0-3.194-0.641-4.359-1.806
			C6.175,11.615,5.533,10.065,5.533,8.417L5.533,8.417z M5.533,8.417"/>
	</g>
	<path fill="#021F39" d="M27.545,13.812c-1.744,0-3.162,1.418-3.162,3.158c0,1.74,1.418,3.158,3.162,3.158
		c1.74,0,3.155-1.418,3.155-3.158C30.7,15.227,29.286,13.812,27.545,13.812L27.545,13.812z M27.545,18.023
		c-0.582,0-1.056-0.474-1.056-1.053c0-0.579,0.474-1.053,1.056-1.053c0.569,0,1.049,0.48,1.049,1.053
		C28.595,17.54,28.115,18.023,27.545,18.023L27.545,18.023z M27.545,18.023"/>
</g>
</svg>
