<?xml version="1.0" encoding="utf-8"?>
<!-- Generator: Adobe Illustrator 21.0.0, SVG Export Plug-In . SVG Version: 6.00 Build 0)  -->
<svg version="1.1" id="图层_1" xmlns="http://www.w3.org/2000/svg" xmlns:xlink="http://www.w3.org/1999/xlink" x="0px" y="0px"
	 viewBox="0 0 34 34" enable-background="new 0 0 34 34" xml:space="preserve">
<polygon fill="#ADD7DA" points="14.563,1.125 20.313,1.125 20.313,3.25 23.438,3.688 23.438,7.938 11.5,7.938 11.5,3.563 
	14.25,3.25 "/>
<g>
	<path d="M28.944,33.884H5.681c-1.276,0-2.251-0.975-2.251-2.251V6.87c0-1.276,0.975-2.251,2.251-2.251h5.403v1.501H5.681
		c-0.45,0-0.75,0.3-0.75,0.75v24.763c0,0.45,0.3,0.751,0.75,0.751h23.262c0.45,0,0.751-0.3,0.751-0.751V6.87
		c0-0.45-0.3-0.75-0.751-0.75h-5.103V4.618h5.103c1.276,0,2.251,0.975,2.251,2.251v24.763
		C31.195,32.909,30.219,33.884,28.944,33.884L28.944,33.884z M28.944,33.884"/>
	<path d="M22.19,9.121h-9.755c-1.276,0-2.251-0.975-2.251-2.251V4.618c0-1.276,0.975-2.251,2.251-2.251h0.75
		c0-1.276,0.976-2.251,2.251-2.251h3.752c1.276,0,2.251,0.975,2.251,2.251h0.75c1.276,0,2.251,0.975,2.251,2.251V6.87
		C24.441,8.145,23.466,9.121,22.19,9.121L22.19,9.121z M12.435,3.868c-0.45,0-0.75,0.3-0.75,0.75V6.87c0,0.45,0.3,0.75,0.75,0.75
		h9.755c0.45,0,0.751-0.3,0.751-0.75V4.618c0-0.45-0.3-0.75-0.751-0.75h-2.251V2.367c0-0.45-0.3-0.75-0.75-0.75h-3.752
		c-0.45,0-0.75,0.3-0.75,0.75v1.501H12.435z M11.685,15.124h12.006c0.45,0,0.75,0.3,0.75,0.75c0,0.45-0.3,0.75-0.75,0.75H11.685
		c-0.45,0-0.751-0.3-0.751-0.75C10.934,15.424,11.234,15.124,11.685,15.124L11.685,15.124z M11.685,20.377h6.754
		c0.45,0,0.75,0.3,0.75,0.75c0,0.45-0.3,0.751-0.75,0.751h-6.754c-0.45,0-0.751-0.3-0.751-0.751
		C10.934,20.677,11.234,20.377,11.685,20.377L11.685,20.377z M11.685,20.377"/>
</g>
</svg>
