<?xml version="1.0" encoding="utf-8"?>
<!-- Generator: Adobe Illustrator 21.0.0, SVG Export Plug-In . SVG Version: 6.00 Build 0)  -->
<svg version="1.1" id="图层_1" xmlns="http://www.w3.org/2000/svg" xmlns:xlink="http://www.w3.org/1999/xlink" x="0px" y="0px"
	 viewBox="0 0 34 34" enable-background="new 0 0 34 34" xml:space="preserve">
<path fill="#ADD7DA" d="M29.41,33.302l-11.735-5.739l-12.51,5.785c-1.395,0.741-2.75-0.069-2.75-1.655V2.799
	C2.418,1.392,3.559,0.251,4.967,0.25h24.642c0.677-0.001,1.326,0.267,1.805,0.746c0.478,0.478,0.747,1.128,0.746,1.805v28.893
	C32.16,33.285,30.802,34.084,29.41,33.302L29.41,33.302z M11.569,12.255"/>
<path fill="#021F39" d="M29.603,33.671l-11.954-5.847L4.905,33.718c-1.422,0.755-2.802-0.07-2.802-1.686V2.597
	C2.105,1.163,3.268,0.001,4.702,0h25.103c0.69-0.001,1.351,0.272,1.839,0.76c0.487,0.487,0.761,1.149,0.76,1.838v29.434
	C32.405,33.653,31.021,34.467,29.603,33.671L29.603,33.671z M3.835,2.599v29.433c0,0.307-0.013,0.3,0.26,0.156l13.159-6.114
	c0.26-0.138,0.572-0.135,0.829,0.009l12.366,6.078c0.262,0.147,0.223,0.17,0.223-0.13V2.599c0.001-0.23-0.09-0.451-0.252-0.614
	c-0.163-0.163-0.384-0.254-0.614-0.253H4.702C4.226,1.731,3.835,2.121,3.835,2.599L3.835,2.599z M19.569,11.255h3.307
	c0.481,0,0.871,0.384,0.871,0.866c0,0.478-0.39,0.866-0.872,0.866h-4.323v3.463h4.323c0.481,0,0.872,0.384,0.872,0.866
	c0,0.478-0.39,0.866-0.872,0.866h-4.323v5.188c0,0.481-0.384,0.872-0.866,0.872c-0.478,0-0.866-0.389-0.866-0.872v-5.188h-4.323
	c-0.23,0.001-0.452-0.089-0.616-0.252c-0.163-0.162-0.256-0.383-0.256-0.614c0-0.478,0.39-0.866,0.872-0.866h4.323v-3.463h-4.323
	c-0.23,0.001-0.452-0.089-0.616-0.252c-0.163-0.163-0.256-0.383-0.256-0.614c0-0.478,0.39-0.866,0.872-0.866h3.306l-3.969-4.632
	c-0.289-0.365-0.238-0.893,0.115-1.195c0.354-0.303,0.883-0.272,1.199,0.07l4.537,5.291l4.537-5.293
	c0.201-0.235,0.513-0.345,0.817-0.288c0.304,0.057,0.555,0.272,0.658,0.564c0.103,0.292,0.042,0.616-0.159,0.851l-3.971,4.632
	H19.569z M19.569,11.255"/>
</svg>
