<svg id="图层_1" data-name="图层 1" xmlns="http://www.w3.org/2000/svg" viewBox="0 0 32 32"><defs><style>.cls-1{fill:#1ea6bb;}.cls-2{fill:#666;}</style></defs><title>医生关联管理</title><path class="cls-1" d="M31.72,20.91l-5-5a.82.82,0,0,0-1.16,1.16l3.57,3.57H15.77a.82.82,0,1,0,0,1.64H29.15L25.57,25.9a.83.83,0,0,0,0,1.16.77.77,0,0,0,.57.25.75.75,0,0,0,.59-.28l5-5a.77.77,0,0,0,.25-.57A.83.83,0,0,0,31.72,20.91Z"/><path class="cls-2" d="M11.14,17.19A6.9,6.9,0,1,1,18,10.3a6.91,6.91,0,0,1-6.9,6.9ZM11.14,5A5.26,5.26,0,1,0,16.4,10.3,5.27,5.27,0,0,0,11.14,5Zm0,0"/><path class="cls-2" d="M.81,28.58A.81.81,0,0,1,0,27.76,11.15,11.15,0,0,1,14.78,17.23a.81.81,0,0,1-.52,1.54,9.55,9.55,0,0,0-12.62,9,.81.81,0,0,1-.82.82Zm0,0"/><path class="cls-2" d="M21.18,26.42H15.77a.82.82,0,1,1,0-1.64h5.41a.82.82,0,0,1,0,1.64Z"/></svg>