<?xml version="1.0" encoding="utf-8"?>
<!-- Generator: Adobe Illustrator 21.0.0, SVG Export Plug-In . SVG Version: 6.00 Build 0)  -->
<svg version="1.1" id="图层_1" xmlns="http://www.w3.org/2000/svg" xmlns:xlink="http://www.w3.org/1999/xlink" x="0px" y="0px"
	 viewBox="0 0 34 34" style="enable-background:new 0 0 34 34;" xml:space="preserve">
<style type="text/css">
	.st0{clip-path:url(#SVGID_2_);fill:#021F39;}
	.st1{fill:#ADD7DA;}
	.st2{font-family:'STHupo';}
	.st3{font-size:22.1555px;}
</style>
<g>
	<g>
		<defs>
			<rect id="SVGID_1_" x="0.6" y="3" width="31.9" height="28.4"/>
		</defs>
		<clipPath id="SVGID_2_">
			<use xlink:href="#SVGID_1_"  style="overflow:visible;"/>
		</clipPath>
		<path class="st0" d="M27.9,31.4H3.6c-1.6,0-2.9-1.4-2.9-3V6c0-1.7,1.3-3,2.9-3h24.3c1.6,0,2.9,1.4,2.9,3v4c0,0.6-0.5,1.1-1.1,1.1
			c-0.6,0-1.1-0.5-1.1-1.1V6c0-0.5-0.4-0.9-0.8-0.9H3.6C3.1,5.1,2.8,5.5,2.8,6v22.3c0,0.5,0.4,0.9,0.8,0.9h24.3
			c0.4,0,0.8-0.4,0.8-0.9v-4c0-0.6,0.5-1.1,1.1-1.1c0.6,0,1.1,0.5,1.1,1.1v4C30.9,30,29.5,31.4,27.9,31.4L27.9,31.4z M27.9,31.4"/>
	</g>
	<text transform="matrix(1 0 0 1 15.0879 22.4746)" class="st1 st2 st3">＋</text>
</g>
</svg>
