<?xml version="1.0" encoding="utf-8"?>
<!-- Generator: Adobe Illustrator 21.0.0, SVG Export Plug-In . SVG Version: 6.00 Build 0)  -->
<svg version="1.1" id="图层_1" xmlns="http://www.w3.org/2000/svg" xmlns:xlink="http://www.w3.org/1999/xlink" x="0px" y="0px"
	 viewBox="0 0 34 34" style="enable-background:new 0 0 34 34;" xml:space="preserve">
<style type="text/css">
	.st0{fill:#ADD7DA;}
	.st1{fill:#021F39;}
	.st2{font-family:'STHupo';}
	.st3{font-size:16.7707px;}
	.st4{clip-path:url(#SVGID_2_);fill:#021F39;}
</style>
<rect x="2.6" y="3.8" class="st0" width="29.6" height="5.8"/>
<g>
	<text transform="matrix(1 0 0 1 8.8999 24.4785)" class="st1 st2 st3">＋</text>
</g>
<g>
	<g>
		<defs>
			<rect id="SVGID_1_" x="1" y="0.7" width="32.5" height="32.6"/>
		</defs>
		<clipPath id="SVGID_2_">
			<use xlink:href="#SVGID_1_"  style="overflow:visible;"/>
		</clipPath>
		<path class="st4" d="M31.5,2.8h-4.1v-1c0-0.6-0.5-1-1-1c-0.6,0-1,0.5-1,1v1h-7.1v-1c0-0.6-0.5-1-1-1c-0.6,0-1,0.5-1,1v1H9.2v-1
			c0-0.6-0.5-1-1-1c-0.6,0-1,0.5-1,1v1H3.1c-1.1,0-2,0.9-2,2v26.4c0,1.1,0.9,2,2,2h28.5c1.1,0,2-0.9,2-2V4.8
			C33.6,3.7,32.7,2.8,31.5,2.8L31.5,2.8z M31.5,31.2H3.1V10.9h28.5V31.2z M3.1,8.9V4.8h4.1v1c0,0.6,0.5,1,1,1c0.6,0,1-0.5,1-1v-1
			h7.1v1c0,0.6,0.5,1,1,1c0.6,0,1-0.5,1-1v-1h7.1v1c0,0.6,0.5,1,1,1c0.6,0,1-0.5,1-1v-1h4.1v4.1H3.1z M3.1,8.9"/>
	</g>
</g>
</svg>
