<?xml version="1.0" encoding="utf-8"?>
<!-- Generator: Adobe Illustrator 21.0.0, SVG Export Plug-In . SVG Version: 6.00 Build 0)  -->
<svg version="1.1" id="图层_1" xmlns="http://www.w3.org/2000/svg" xmlns:xlink="http://www.w3.org/1999/xlink" x="0px" y="0px"
	 viewBox="0 0 34 34" style="enable-background:new 0 0 34 34;" xml:space="preserve">
<style type="text/css">
	.st0{fill:#ADD7DA;}
	.st1{clip-path:url(#SVGID_2_);fill:#021F39;}
	.st2{clip-path:url(#SVGID_2_);}
	.st3{fill:#021F39;}
	.st4{font-family:'FZHPJW--GB1-0';}
	.st5{font-size:13.1637px;}
</style>
<g id="图层_2">
	<circle class="st0" cx="15.8" cy="11.1" r="8.8"/>
</g>
<g>
	<g>
		<defs>
			<rect id="SVGID_1_" x="0.2" y="0.1" width="33.7" height="33.8"/>
		</defs>
		<clipPath id="SVGID_2_">
			<use xlink:href="#SVGID_1_"  style="overflow:visible;"/>
		</clipPath>
		<path class="st1" d="M15.9,0.1C9.9,0.1,5,4.9,5,10.7c0,5.8,4.9,11,10.8,11c6,0,10.8-5.2,10.8-11C26.6,4.9,21.8,0.1,15.9,0.1
			L15.9,0.1z M15.8,19.4c-4.7,0-8.4-3.8-8.4-8.4c0-4.7,3.8-8.4,8.4-8.4c4.7,0,8.4,3.8,8.4,8.4C24.2,15.6,20.5,19.4,15.8,19.4
			L15.8,19.4z M15.8,19.4"/>
		<path class="st1" d="M2.6,33.8c0-6.9,6.2-12.1,13.2-12.1c3.8,0,7.5,1.3,10.3,4.5l1.8-1.5c-2.9-3.7-7-5.4-12.1-5.4
			c-8.5,0-15.6,6.1-15.6,14.4L2.6,33.8z M2.6,33.8"/>
		<g class="st2">
			<text transform="matrix(1 0 0 1 21.5218 33.5448)" class="st3 st4 st5">＋</text>
		</g>
	</g>
</g>
</svg>
