<?xml version="1.0" encoding="utf-8"?>
<!-- Generator: Adobe Illustrator 21.0.0, SVG Export Plug-In . SVG Version: 6.00 Build 0)  -->
<svg version="1.1" id="图层_1" xmlns="http://www.w3.org/2000/svg" xmlns:xlink="http://www.w3.org/1999/xlink" x="0px" y="0px"
	 viewBox="0 0 34 34" style="enable-background:new 0 0 34 34;" xml:space="preserve">
<style type="text/css">
	.st0{clip-path:url(#SVGID_2_);fill:#021F39;}
	.st1{fill:#021F39;}
</style>
<g>
	<g>
		<defs>
			<rect id="SVGID_1_" x="2.8" width="29.7" height="34"/>
		</defs>
		<clipPath id="SVGID_2_">
			<use xlink:href="#SVGID_1_"  style="overflow:visible;"/>
		</clipPath>
		<path class="st0" d="M30.4,6.4v25.5H9.1V6.4H30.4 M30.4,4.2H9.1C8,4.2,7,5.2,7,6.4v25.5C7,33,8,34,9.1,34h21.2
			c1.2,0,2.1-1,2.1-2.1V6.4C32.5,5.2,31.5,4.2,30.4,4.2L30.4,4.2z M30.4,4.2"/>
		<path class="st0" d="M26.1,2.1v2.1h-17L7,6.4v21.2H4.9V2.1H26.1 M26.1,0H4.9C3.7,0,2.8,1,2.8,2.1v25.5c0,1.2,1,2.1,2.1,2.1h4.2
			V6.4h19.1V2.1C28.2,1,27.3,0,26.1,0L26.1,0z M26.1,0"/>
	</g>
	<path class="st1" d="M25.1,13.8H14.5c-0.6,0-1.1-0.5-1.1-1.1c0-0.6,0.5-1.1,1.1-1.1h10.6c0.6,0,1.1,0.5,1.1,1.1
		C26.2,13.3,25.7,13.8,25.1,13.8L25.1,13.8z M25.1,20.2H14.5c-0.6,0-1.1-0.5-1.1-1.1c0-0.6,0.5-1.1,1.1-1.1h10.6
		c0.6,0,1.1,0.5,1.1,1.1C26.2,19.7,25.7,20.2,25.1,20.2L25.1,20.2z M25.1,26.5H14.5c-0.6,0-1.1-0.5-1.1-1.1c0-0.6,0.5-1.1,1.1-1.1
		h10.6c0.6,0,1.1,0.5,1.1,1.1C26.2,26.1,25.7,26.5,25.1,26.5L25.1,26.5z M25.1,26.5"/>
</g>
</svg>
