<?xml version="1.0" encoding="utf-8"?>
<!-- Generator: Adobe Illustrator 15.0.0, SVG Export Plug-In . SVG Version: 6.00 Build 0)  -->
<!DOCTYPE svg PUBLIC "-//W3C//DTD SVG 1.1//EN" "http://www.w3.org/Graphics/SVG/1.1/DTD/svg11.dtd">
<svg version="1.1" id="图层_1" xmlns="http://www.w3.org/2000/svg" xmlns:xlink="http://www.w3.org/1999/xlink" x="0px" y="0px"
	 width="34px" height="34px" viewBox="0 0 34 34" enable-background="new 0 0 34 34" xml:space="preserve">
<polygon fill="#ADD7DA" points="27.352,8.705 27.352,18.226 24.551,16.517 21.749,18.226 21.749,8.705 "/>
<g>
	<defs>
		<rect id="SVGID_1_" width="34" height="34"/>
	</defs>
	<clipPath id="SVGID_2_">
		<use xlink:href="#SVGID_1_"  overflow="visible"/>
	</clipPath>
	<path clip-path="url(#SVGID_2_)" fill="#021F39" d="M27.352,19.161c-0.169,0-0.338-0.046-0.487-0.138l-2.313-1.41l-2.314,1.41
		c-0.289,0.177-0.649,0.183-0.945,0.017c-0.295-0.165-0.477-0.477-0.477-0.814V8.705c0-0.517,0.418-0.936,0.935-0.936h5.603
		c0.516,0,0.935,0.419,0.935,0.936v9.521c0,0.338-0.182,0.649-0.477,0.814C27.67,19.119,27.512,19.161,27.352,19.161 M24.551,15.581
		c0.169,0,0.337,0.046,0.486,0.138l1.379,0.84V9.641h-3.731v6.918l1.379-0.841C24.211,15.629,24.379,15.581,24.551,15.581
		 M9.449,17.336H0.936C0.418,17.336,0,16.917,0,16.401c0-0.516,0.418-0.935,0.935-0.935h8.513c0.517,0,0.935,0.419,0.935,0.935
		C10.383,16.918,9.965,17.336,9.449,17.336 M9.449,21.593H3.742c-0.516,0-0.935-0.419-0.935-0.935c0-0.517,0.419-0.936,0.935-0.936
		h5.707c0.517,0,0.936,0.419,0.936,0.936C10.384,21.174,9.965,21.593,9.449,21.593 M9.449,25.85h-2.9
		c-0.517,0-0.935-0.418-0.935-0.936c0-0.517,0.418-0.936,0.935-0.936h2.9c0.517,0,0.936,0.419,0.936,0.936
		C10.384,25.432,9.965,25.85,9.449,25.85"/>
	<path clip-path="url(#SVGID_2_)" fill="#021F39" d="M28.011,29.638H12.479c-2.152,0-3.902-1.75-3.902-3.901v-9.314
		c0-0.517,0.419-0.936,0.936-0.936c0.517,0,0.936,0.419,0.936,0.936v9.314c0,1.119,0.91,2.03,2.03,2.03h15.532
		c1.12,0,2.03-0.911,2.03-2.03V7.898c0-0.516,0.419-0.935,0.936-0.935s0.936,0.419,0.936,0.935v17.838
		C31.912,27.888,30.162,29.638,28.011,29.638"/>
	<rect x="7.425" y="5.298" clip-path="url(#SVGID_2_)" fill="#ADD7DA" width="25.64" height="6.021"/>
	<path clip-path="url(#SVGID_2_)" fill="#021F39" d="M33.065,12.254H7.425c-0.517,0-0.936-0.418-0.936-0.935V5.298
		c0-0.517,0.419-0.936,0.936-0.936h25.641C33.581,4.362,34,4.781,34,5.298v6.021C34,11.836,33.581,12.254,33.065,12.254
		 M8.361,10.383H32.13v-4.15H8.361V10.383z"/>
</g>
</svg>
