<?xml version="1.0" encoding="utf-8"?>
<!-- Generator: Adobe Illustrator 21.0.0, SVG Export Plug-In . SVG Version: 6.00 Build 0)  -->
<svg version="1.1" id="图层_1" xmlns="http://www.w3.org/2000/svg" xmlns:xlink="http://www.w3.org/1999/xlink" x="0px" y="0px"
	 viewBox="0 0 34 34" enable-background="new 0 0 34 34" xml:space="preserve">
<ellipse fill="#ADD7DA" cx="23.688" cy="9.563" rx="6.688" ry="6.5"/>
<ellipse fill="#ADD7DA" cx="13.813" cy="9.563" rx="6.688" ry="6.5"/>
<g>
	<g>
		<defs>
			<rect id="SVGID_1_" x="0.854" y="0.701" width="35.625" height="32.598"/>
		</defs>
		<clipPath id="SVGID_2_">
			<use xlink:href="#SVGID_1_"  overflow="visible"/>
		</clipPath>
		<path clip-path="url(#SVGID_2_)" fill="#021F39" d="M31.821,9.569c0-4.89-3.967-8.853-8.861-8.853
			c-1.606,0-3.111,0.429-4.41,1.176c-1.299-0.746-2.803-1.176-4.409-1.176c-4.894,0-8.862,3.964-8.862,8.853
			c0,2.837,1.337,5.36,3.414,6.98C4.206,18.565,1.047,23,0.879,28.192c-0.027,0.111-0.029,0.483-0.029,0.483
			c0,0.812,0.658,1.469,1.47,1.469c0.811,0,1.47-0.657,1.47-1.469l0.027-0.047c0.012-5.387,4.158-9.801,9.437-10.25h0
			c0.292,0.029,0.587,0.044,0.887,0.044c0.299,0,0.595-0.015,0.887-0.044h0c2.162,0.184,4.132,1.034,5.707,2.344
			c0.045-0.083,0.101-0.161,0.17-0.231c0.545-0.551,1.001-1.15,1.671-1.564c0.127-0.078,0.267-0.122,0.408-0.135
			c-0.144-0.13-0.29-0.258-0.44-0.382c0.138,0.006,1.038-0.006,1.302-0.032c0.543-0.054,1.071-0.158,1.58-0.305l0.001,0.001
			c1.188,0.515,2.471,1.243,3.648,2.199c0.225-0.417,0.544-0.785,0.915-1.075c0.417-0.326,0.884-0.613,1.394-0.768
			c-0.903-0.748-1.907-1.38-2.99-1.869C30.478,14.941,31.821,12.412,31.821,9.569L31.821,9.569z M14.119,15.641
			c-3.352,0-6.068-2.717-6.068-6.068c0-3.351,2.717-6.068,6.068-6.068c3.351,0,6.068,2.717,6.068,6.068
			C20.187,12.924,17.47,15.641,14.119,15.641L14.119,15.641z M25.705,14.746c-0.096,0.039-0.189,0.086-0.277,0.139
			c-0.574,0.268-1.198,0.447-1.856,0.518l-0.582,0.034c-0.019,0-0.038,0.001-0.057,0.001c-0.664,0-1.302-0.11-1.897-0.312
			c1.228-1.519,1.965-3.451,1.965-5.557c0-2.12-0.746-4.064-1.989-5.588c0.602-0.208,1.248-0.321,1.921-0.321
			c3.255,0,5.895,2.636,5.895,5.889C28.828,11.801,27.563,13.756,25.705,14.746L25.705,14.746z M22.738,31.934"/>
	</g>
</g>
<g>
	<path fill="#021F39" stroke="#021F39" stroke-width="0.5" stroke-miterlimit="10" d="M28.451,30.395h-7.484l0.72,0.681
		c0.144,0.097,0.24,0.243,0.24,0.438C21.879,31.805,21.639,32,21.351,32c-0.144,0-0.336-0.097-0.432-0.195l-1.631-1.459
		c-0.192-0.195-0.24-0.535,0-0.73l1.631-1.508c0.096-0.097,0.288-0.146,0.432-0.146c0.288,0,0.528,0.243,0.528,0.535
		c0,0.146-0.096,0.292-0.192,0.389l-0.624,0.584h7.436c1.679,0,2.975-1.362,2.975-3.015v-1.313c0-0.292,0.192-0.486,0.48-0.486
		c0.288,0,0.48,0.195,0.48,0.486v1.313C32.433,28.596,30.658,30.395,28.451,30.395L28.451,30.395z M22.982,21.988h7.436l-0.72-0.681
		c-0.144-0.097-0.24-0.243-0.24-0.438c0.048-0.292,0.288-0.486,0.576-0.486c0.144,0,0.336,0.097,0.432,0.194l1.631,1.459
		c0.192,0.195,0.24,0.535,0,0.729l-1.583,1.508c-0.096,0.097-0.288,0.146-0.432,0.146c-0.288,0-0.528-0.243-0.528-0.535
		c0-0.146,0.096-0.292,0.192-0.389l0.624-0.584h-7.436c-1.631,0.049-2.975,1.41-2.975,3.112v1.362c0,0.292-0.192,0.486-0.48,0.486
		c-0.288,0-0.48-0.194-0.48-0.486v-1.313C19,23.788,20.775,21.988,22.982,21.988L22.982,21.988z M21.982,21.988"/>
</g>
</svg>
