<?xml version="1.0" encoding="utf-8"?>
<!-- Generator: Adobe Illustrator 21.0.0, SVG Export Plug-In . SVG Version: 6.00 Build 0)  -->
<svg version="1.1" id="图层_1" xmlns="http://www.w3.org/2000/svg" xmlns:xlink="http://www.w3.org/1999/xlink" x="0px" y="0px"
	 viewBox="0 0 34 34" style="enable-background:new 0 0 34 34;" xml:space="preserve">
<style type="text/css">
	.st0{fill:#021F39;}
</style>
<g>
	<path class="st0" d="M10.6,8.5c-1.3,0-2.4,1.1-2.4,2.4s1.1,2.4,2.4,2.4c1.3,0,2.4-1.1,2.4-2.4S12,8.5,10.6,8.5L10.6,8.5z
		 M11.4,10.9c0,0.4-0.4,0.8-0.8,0.8c-0.4,0-0.8-0.4-0.8-0.8c0-0.4,0.4-0.8,0.8-0.8C11.1,10.1,11.4,10.5,11.4,10.9L11.4,10.9z
		 M10.6,14.9c-1.3,0-2.4,1.1-2.4,2.4c0,1.3,1.1,2.4,2.4,2.4c1.3,0,2.4-1.1,2.4-2.4C13,16,12,14.9,10.6,14.9L10.6,14.9z M11.4,17.3
		c0,0.4-0.4,0.8-0.8,0.8c-0.4,0-0.8-0.4-0.8-0.8c0-0.4,0.4-0.8,0.8-0.8C11.1,16.5,11.4,16.8,11.4,17.3L11.4,17.3z M10.6,21.3
		c-1.3,0-2.4,1.1-2.4,2.4c0,1.3,1.1,2.4,2.4,2.4C12,26,13,25,13,23.7C13,22.3,12,21.3,10.6,21.3L10.6,21.3z M11.4,23.7
		c0,0.4-0.4,0.8-0.8,0.8c-0.4,0-0.8-0.4-0.8-0.8c0-0.4,0.4-0.8,0.8-0.8C11.1,22.9,11.4,23.2,11.4,23.7L11.4,23.7z M25.8,17.3
		c0,0.4-0.4,0.8-0.8,0.8h-9.6c-0.4,0-0.8-0.4-0.8-0.8c0-0.4,0.4-0.8,0.8-0.8H25C25.4,16.5,25.8,16.8,25.8,17.3L25.8,17.3z
		 M25.8,10.9c0,0.4-0.4,0.8-0.8,0.8h-9.6c-0.4,0-0.8-0.4-0.8-0.8c0-0.4,0.4-0.8,0.8-0.8H25C25.4,10.1,25.8,10.5,25.8,10.9L25.8,10.9
		z M25.8,23.6c0,0.4-0.4,0.8-0.8,0.8h-9.6c-0.4,0-0.8-0.4-0.8-0.8c0-0.4,0.4-0.8,0.8-0.8H25C25.4,22.8,25.8,23.2,25.8,23.6
		L25.8,23.6z M34,2.3C34,1,33,0,31.7,0H2.3C1,0,0,1,0,2.3v29.3C0,33,1,34,2.3,34h29.3c1.3,0,2.3-1,2.3-2.3V2.3z M32.9,31.7
		c0,0.7-0.6,1.3-1.3,1.3H2.3c-0.7,0-1.3-0.6-1.3-1.3V2.3c0-0.7,0.6-1.3,1.3-1.3h29.3c0.7,0,1.3,0.6,1.3,1.3V31.7z M32.9,31.7"/>
</g>
</svg>
