<?xml version="1.0" encoding="utf-8"?>
<!-- Generator: Adobe Illustrator 15.0.0, SVG Export Plug-In . SVG Version: 6.00 Build 0)  -->
<!DOCTYPE svg PUBLIC "-//W3C//DTD SVG 1.1//EN" "http://www.w3.org/Graphics/SVG/1.1/DTD/svg11.dtd">
<svg version="1.1" id="图层_1" xmlns="http://www.w3.org/2000/svg" xmlns:xlink="http://www.w3.org/1999/xlink" x="0px" y="0px"
	 width="34px" height="34px" viewBox="0 0 34 34" enable-background="new 0 0 34 34" xml:space="preserve">
<g>
	<defs>
		<rect id="SVGID_1_" width="34" height="34"/>
	</defs>
	<clipPath id="SVGID_2_">
		<use xlink:href="#SVGID_1_"  overflow="visible"/>
	</clipPath>
	<path clip-path="url(#SVGID_2_)" fill="#021F39" d="M19.65,34c-0.282,0-0.552-0.111-0.752-0.312l-5.838-5.839
		c-0.415-0.415-0.415-1.087,0-1.502c0.199-0.199,0.469-0.311,0.751-0.311h5.838c0.587,0,1.063,0.476,1.063,1.063v5.838
		C20.712,33.523,20.236,34,19.65,34 M16.376,28.162l2.21,2.211v-2.211H16.376z"/>
	<path clip-path="url(#SVGID_2_)" fill="#021F39" d="M30.657,34H25.5c-0.587,0-1.063-0.476-1.063-1.062
		c0-0.587,0.476-1.063,1.063-1.063h5.157c0.085,0,0.154-0.069,0.154-0.154V2.279c0-0.085-0.069-0.154-0.154-0.154H14.874v24.534
		l5.527,5.527c0.415,0.415,0.415,1.088,0,1.502c-0.415,0.416-1.087,0.416-1.503,0l-5.838-5.838c-0.199-0.199-0.311-0.47-0.311-0.752
		V1.062C12.749,0.476,13.224,0,13.811,0h16.846c1.256,0,2.279,1.022,2.279,2.279v29.441C32.937,32.979,31.913,34,30.657,34"/>
	<polygon clip-path="url(#SVGID_2_)" fill="#ADD7DA" points="13.812,1.063 13.812,27.1 19.649,32.938 7.967,32.938 7.967,1.063 	"/>
	<path clip-path="url(#SVGID_2_)" fill="#021F39" d="M19.652,34H7.968c-0.587,0-1.063-0.476-1.063-1.063V1.063
		C6.905,0.476,7.381,0,7.968,0h5.843c0.587,0,1.063,0.476,1.063,1.063v25.596l5.488,5.488c0.225,0.201,0.353,0.488,0.353,0.79
		C20.715,33.524,20.238,34,19.652,34 M9.03,31.875h8.055l-4.025-4.024c-0.199-0.199-0.311-0.47-0.311-0.752V2.125H9.03V31.875z"/>
	<path clip-path="url(#SVGID_2_)" fill="#ADD7DA" d="M2.127,2.279v29.442c0,0.672,0.544,1.217,1.216,1.217h4.625V1.063H3.343
		C2.671,1.063,2.127,1.607,2.127,2.279"/>
	<path clip-path="url(#SVGID_2_)" fill="#021F39" d="M7.968,34H3.343c-1.257,0-2.279-1.021-2.279-2.279V2.279
		C1.064,1.022,2.086,0,3.343,0h4.625C8.554,0,9.03,0.476,9.03,1.063v31.875C9.03,33.524,8.554,34,7.968,34 M3.343,2.125
		c-0.085,0-0.154,0.069-0.154,0.154v29.441c0,0.085,0.069,0.154,0.154,0.154h3.562V2.125H3.343z"/>
</g>
</svg>
