<?xml version="1.0" encoding="utf-8"?>
<!-- Generator: Adobe Illustrator 21.0.0, SVG Export Plug-In . SVG Version: 6.00 Build 0)  -->
<svg version="1.1" id="图层_1" xmlns="http://www.w3.org/2000/svg" xmlns:xlink="http://www.w3.org/1999/xlink" x="0px" y="0px"
	 viewBox="0 0 34 34" style="enable-background:new 0 0 34 34;" xml:space="preserve">
<style type="text/css">
	.st0{fill:#A9D1D4;stroke:#231815;stroke-miterlimit:10;}
</style>
<g>
	<path d="M33.2,24.5H7.8c-0.4,0-0.8,0.3-0.8,0.8C7,25.7,7.3,26,7.8,26h24.7v0.8c0,0.4-0.3,0.8-0.8,0.8H2.3c-0.4,0-0.8-0.3-0.8-0.8
		V26h3.1c0.4,0,0.8-0.3,0.8-0.8v-17c0-0.4,0.3-0.8,0.8-0.8h21.6c0.4,0,0.8,0.3,0.8,0.8v13.9c0,0.4,0.3,0.8,0.8,0.8
		c0.4,0,0.8-0.3,0.8-0.8V8.3c0-1.3-1-2.3-2.3-2.3H6.2C4.9,6,3.9,7,3.9,8.3v16.2H0.8c-0.4,0-0.8,0.3-0.8,0.8v1.5c0,1.3,1,2.3,2.3,2.3
		h29.3c1.3,0,2.3-1,2.3-2.3v-1.5C34,24.8,33.7,24.5,33.2,24.5L33.2,24.5z"/>
	<path d="M26.3,9.1H7.8C7.3,9.1,7,9.4,7,9.8v12.4c0,0.4,0.3,0.8,0.8,0.8h18.5c0.4,0,0.8-0.3,0.8-0.8V9.8C27.1,9.4,26.7,9.1,26.3,9.1
		L26.3,9.1z M25.5,21.4h-17V10.6h17L25.5,21.4L25.5,21.4z"/>
</g>
<rect x="8.2" y="9.8" class="st0" width="17.6" height="12.4"/>
</svg>
