<?xml version="1.0" encoding="utf-8"?>
<!-- Generator: Adobe Illustrator 21.0.0, SVG Export Plug-In . SVG Version: 6.00 Build 0)  -->
<svg version="1.1" id="图层_1" xmlns="http://www.w3.org/2000/svg" xmlns:xlink="http://www.w3.org/1999/xlink" x="0px" y="0px"
	 viewBox="0 0 34 34" enable-background="new 0 0 34 34" xml:space="preserve">
<g>
	<path fill="#ADD7DA" d="M24.143,32.807H3.508c-1.164,0-2.116-1.074-2.116-2.386V3.579c0-1.312,0.952-2.386,2.116-2.386h26.984
		c1.164,0,2.116,1.074,2.116,2.386v26.842c0,1.312-0.952,2.386-2.116,2.386H24.143z M24.143,32.807"/>
	<path fill="#FFFFFF" d="M24.143,32.807H3.508c-1.164,0-2.116-1.074-2.116-2.386V3.579c0-1.312,0.952-2.386,2.116-2.386h26.984
		c1.164,0,2.116,1.074,2.116,2.386v19.684L24.143,32.807z M24.143,32.807"/>
	<path fill="#ADD7DA" d="M1.391,8.351V3.579c0-1.312,0.952-2.386,2.116-2.386h26.984c1.164,0,2.116,1.074,2.116,2.386v4.772H1.391z
		 M1.391,8.351"/>
	<path fill="#FFFFFF" d="M24.143,32.807v-7.158c0-1.312,0.952-2.386,2.116-2.386h6.349L24.143,32.807z M24.143,32.807"/>
	<path fill="#021F39" d="M8.534,16.403h16.931c0.582,0,1.058-0.537,1.058-1.193c0-0.656-0.476-1.193-1.058-1.193H8.534
		c-0.582,0-1.058,0.537-1.058,1.193C7.476,15.866,7.952,16.403,8.534,16.403L8.534,16.403z M8.534,16.403"/>
	<path fill="#021F39" d="M30.492,0H3.508C2.635,0,1.841,0.388,1.259,1.044C0.677,1.7,0.333,2.595,0.333,3.579v26.842
		C0.333,32.389,1.762,34,3.508,34h26.984c1.746,0,3.175-1.611,3.175-3.579V3.579C33.667,1.61,32.238,0,30.492,0L30.492,0z
		 M31.55,30.421c0,0.656-0.476,1.193-1.058,1.193h-3.783l4.841-5.458V30.421z M25.201,29.914v-4.265
		c0-0.656,0.476-1.193,1.058-1.193h3.783L25.201,29.914z M31.55,22.07h-5.291c-1.746,0-3.175,1.611-3.175,3.579v5.965H3.508
		c-0.582,0-1.058-0.537-1.058-1.193V9.544h29.1V22.07z M31.55,7.158H2.45V3.579c0-0.328,0.106-0.626,0.317-0.835
		c0.185-0.209,0.45-0.358,0.741-0.358h26.984c0.582,0,1.058,0.537,1.058,1.193V7.158z M31.55,7.158"/>
	<path fill="#021F39" d="M20.704,21.772H8.534c-0.582,0-1.058-0.537-1.058-1.193c0-0.656,0.476-1.193,1.058-1.193h12.169
		c0.582,0,1.058,0.537,1.058,1.193C21.762,21.235,21.286,21.772,20.704,21.772L20.704,21.772z M14.884,27.14H8.534
		c-0.582,0-1.058-0.537-1.058-1.193c0-0.656,0.476-1.193,1.058-1.193h6.349c0.582,0,1.058,0.537,1.058,1.193
		C15.942,26.603,15.466,27.14,14.884,27.14L14.884,27.14z M14.884,27.14"/>
</g>
</svg>
