<?xml version="1.0" encoding="utf-8"?>
<!-- Generator: Adobe Illustrator 21.0.0, SVG Export Plug-In . SVG Version: 6.00 Build 0)  -->
<svg version="1.1" id="图层_1" xmlns="http://www.w3.org/2000/svg" xmlns:xlink="http://www.w3.org/1999/xlink" x="0px" y="0px"
	 viewBox="0 0 34 34" style="enable-background:new 0 0 34 34;" xml:space="preserve">
<style type="text/css">
	.st0{fill:#021F39;}
</style>
<g>
	<path class="st0" d="M13.3,17.2H0v-6.8c0-2.9,2.8-5.7,5.8-5.7h7.6V17.2z M1.8,15.4h9.7V6.5H5.8c-2,0-4,2-4,3.9L1.8,15.4L1.8,15.4z
		 M24.4,19.1c-4.9,0-8.9-4-8.9-8.9c0-4.9,4-8.9,8.9-8.9c4.9,0,8.9,4,8.9,8.9C33.3,15.1,29.3,19.1,24.4,19.1L24.4,19.1z M24.4,3.1
		c-3.9,0-7.1,3.2-7.1,7.1c0,3.9,3.2,7.1,7.1,7.1c3.9,0,7.1-3.2,7.1-7.1C31.5,6.3,28.3,3.1,24.4,3.1L24.4,3.1z M29.5,15.1l4.4,4.4
		l-1.3,1.3l-4.4-4.4L29.5,15.1z M13.3,34H5.8c-1.4,0-2.8-0.5-3.9-1.3C0.7,31.8,0,30.5,0,29v-8.4h13.3V34z M1.8,22.5V29
		c0,2,2.1,3.2,4,3.2h5.7v-9.7H1.8z M25.3,34h-8.4V20.7h13.3V29C30.2,32,28.2,34,25.3,34L25.3,34z M18.7,32.2h6.6
		c2,0,3.1-1.2,3.1-3.2v-6.5h-9.7V32.2z M18.7,32.2"/>
</g>
</svg>
