<?xml version="1.0" encoding="utf-8"?>
<!-- Generator: Adobe Illustrator 21.0.0, SVG Export Plug-In . SVG Version: 6.00 Build 0)  -->
<svg version="1.1" id="图层_1" xmlns="http://www.w3.org/2000/svg" xmlns:xlink="http://www.w3.org/1999/xlink" x="0px" y="0px"
	 viewBox="0 0 34 34" style="enable-background:new 0 0 34 34;" xml:space="preserve">
<style type="text/css">
	.st0{fill:#021F39;}
</style>
<path class="st0" d="M29,34H5.4c-2.2,0-3.9-1.8-3.9-3.9V3.9C1.5,1.8,3.3,0,5.4,0H29c2.2,0,3.9,1.8,3.9,3.9v26.2
	C32.9,32.2,31.2,34,29,34L29,34z M5.4,2.6c-0.7,0-1.3,0.6-1.3,1.3v26.2c0,0.7,0.6,1.3,1.3,1.3H29c0.7,0,1.3-0.6,1.3-1.3V3.9
	c0-0.7-0.6-1.3-1.3-1.3L5.4,2.6L5.4,2.6z M22.5,18.3H8.1c-0.7,0-1.3-0.6-1.3-1.3c0-0.7,0.6-1.3,1.3-1.3h14.5c0.7,0,1.3,0.6,1.3,1.3
	C23.8,17.8,23.2,18.3,22.5,18.3L22.5,18.3z M26.3,26.1H8c-0.7,0-1.3-0.6-1.3-1.3c0-0.7,0.6-1.3,1.3-1.3h18.3c0.7,0,1.3,0.6,1.3,1.3
	C27.7,25.5,27.1,26.1,26.3,26.1L26.3,26.1z M6.7,8.6c0,1.1,0.9,2,2,2h0c1.1,0,2-0.9,2-2c0-1.1-0.9-2-2-2h0C7.6,6.6,6.7,7.5,6.7,8.6
	L6.7,8.6z M15.2,8.6c0,1.1,0.9,2,2,2h0c0,0,2-0.9,2-2c0-1.1-0.9-2-2-2h0C16.1,6.6,15.2,7.5,15.2,8.6L15.2,8.6z M23.7,8.6
	c0,1.1,0.9,2,2,2h0c0,0,2-0.9,2-2c0-1.1-0.9-2-2-2h0C24.6,6.6,23.7,7.5,23.7,8.6L23.7,8.6z M23.7,8.6"/>
</svg>
