<?xml version="1.0" encoding="utf-8"?>
<!-- Generator: Adobe Illustrator 21.0.0, SVG Export Plug-In . SVG Version: 6.00 Build 0)  -->
<svg version="1.1" id="图层_1" xmlns="http://www.w3.org/2000/svg" xmlns:xlink="http://www.w3.org/1999/xlink" x="0px" y="0px"
	 viewBox="0 0 34 34" style="enable-background:new 0 0 34 34;" xml:space="preserve">
<style type="text/css">
	.st0{fill:#021F39;}
	.st1{fill:#ADD7DA;}
</style>
<g>
	<path class="st0" d="M17,34c-2.4,0-4.3-1.9-4.3-4.3v-0.3c-0.5-0.2-1-0.4-1.5-0.6L11,29c-0.8,0.8-1.9,1.3-3,1.3S5.8,29.8,5,29
		c-1.7-1.7-1.7-4.4,0-6.1l0.2-0.2c-0.2-0.5-0.4-1-0.6-1.5H4.3C1.9,21.3,0,19.4,0,17s1.9-4.3,4.3-4.3h0.3c0.2-0.5,0.4-1,0.6-1.5L5,11
		C3.3,9.4,3.3,6.6,5,5c0.8-0.8,1.9-1.3,3-1.3s2.2,0.4,3,1.3l0.2,0.2c0.5-0.2,1-0.4,1.5-0.6V4.3C12.7,1.9,14.6,0,17,0
		s4.3,1.9,4.3,4.3v0.3c0.5,0.2,1,0.4,1.5,0.6L23,5c0.8-0.8,1.9-1.3,3-1.3c1.1,0,2.2,0.4,3,1.3c1.7,1.7,1.7,4.4,0,6.1
		c-0.4,0.4-1,0.4-1.4,0c-0.4-0.4-0.4-1,0-1.4c0.9-0.9,0.9-2.4,0-3.3c-0.4-0.4-1-0.7-1.6-0.7s-1.2,0.2-1.6,0.7l-0.7,0.7
		c-0.3,0.3-0.8,0.4-1.2,0.2c-0.8-0.4-1.6-0.8-2.4-1c-0.4-0.1-0.7-0.5-0.7-0.9v-1C19.3,3,18.3,2,17,2c-1.3,0-2.3,1-2.3,2.3v1
		c0,0.4-0.3,0.8-0.7,0.9c-0.8,0.2-1.7,0.6-2.4,1c-0.4,0.2-0.9,0.1-1.2-0.2L9.7,6.4C9.2,5.9,8.6,5.7,8,5.7S6.8,5.9,6.4,6.4
		c-0.9,0.9-0.9,2.4,0,3.3l0.7,0.7c0.3,0.3,0.4,0.8,0.2,1.2c-0.4,0.8-0.8,1.6-1,2.4c-0.1,0.4-0.5,0.7-0.9,0.7h-1C3,14.7,2,15.7,2,17
		s1,2.3,2.3,2.3h1c0.4,0,0.8,0.3,0.9,0.7c0.2,0.8,0.6,1.7,1,2.4c0.2,0.4,0.1,0.9-0.2,1.2l-0.7,0.7c-0.9,0.9-0.9,2.4,0,3.3
		c0.4,0.4,1,0.7,1.6,0.7c0.6,0,1.2-0.2,1.6-0.7l0.7-0.7c0.3-0.3,0.8-0.4,1.2-0.2c0.8,0.4,1.6,0.8,2.4,1c0.4,0.1,0.7,0.5,0.7,0.9v1
		c0,1.3,1,2.3,2.3,2.3c1.3,0,2.3-1,2.3-2.3v-1c0-0.4,0.3-0.8,0.7-0.9c0.8-0.2,1.7-0.6,2.4-1c0.4-0.2,0.9-0.1,1.2,0.2l0.7,0.7
		c0.4,0.4,1,0.7,1.6,0.7s1.2-0.2,1.6-0.7c0.9-0.9,0.9-2.4,0-3.3l-0.7-0.7c-0.3-0.3-0.4-0.8-0.2-1.2c0.4-0.8,0.8-1.6,1-2.4
		c0.1-0.4,0.5-0.7,0.9-0.7h1c1.3,0,2.3-1,2.3-2.3c0-0.6-0.3-1.3-0.7-1.7c-0.4-0.4-0.4-1,0-1.4c0.4-0.4,1-0.4,1.4,0
		c0.9,0.8,1.4,2,1.4,3.1c0,2.4-1.9,4.3-4.3,4.3h-0.3c-0.2,0.5-0.4,1-0.6,1.5L29,23c1.7,1.7,1.7,4.4,0,6.1c-0.8,0.8-1.9,1.3-3,1.3
		c-1.1,0-2.2-0.4-3-1.3l-0.2-0.2c-0.5,0.2-1,0.4-1.5,0.6v0.3C21.3,32.1,19.4,34,17,34z"/>
	<path class="st1" d="M9.2,17c0,4.3,3.5,7.8,7.8,7.8s7.8-3.5,7.8-7.8S21.3,9.2,17,9.2C12.7,9.2,9.2,12.7,9.2,17z"/>
	<path class="st0" d="M17,25.8c-4.8,0-8.8-3.9-8.8-8.8s3.9-8.8,8.8-8.8s8.8,3.9,8.8,8.8S21.8,25.8,17,25.8z M17,10.2
		c-3.8,0-6.8,3.1-6.8,6.8c0,3.8,3.1,6.8,6.8,6.8s6.8-3.1,6.8-6.8C23.8,13.2,20.8,10.2,17,10.2z"/>
</g>
</svg>
