<?xml version="1.0" encoding="utf-8"?>
<!-- Generator: Adobe Illustrator 21.0.0, SVG Export Plug-In . SVG Version: 6.00 Build 0)  -->
<svg version="1.1" id="图层_1" xmlns="http://www.w3.org/2000/svg" xmlns:xlink="http://www.w3.org/1999/xlink" x="0px" y="0px"
	 viewBox="0 0 34 34" enable-background="new 0 0 34 34" xml:space="preserve">
<g>
	<path fill="#021F39" d="M13.475,18.461c-4.962,0-8.998-4.036-8.998-8.998c0-4.962,4.036-8.998,8.998-8.998
		c4.962,0,8.998,4.036,8.998,8.998C22.473,14.424,18.438,18.461,13.475,18.461L13.475,18.461z M13.475,2.354
		c-3.923,0-7.112,3.189-7.112,7.112c0,3.923,3.19,7.112,7.112,7.112s7.112-3.189,7.112-7.112
		C20.587,5.544,17.398,2.354,13.475,2.354L13.475,2.354z M13.475,2.354"/>
	<path fill="#021F39" d="M22.079,18.05c-0.478,0-0.884-0.361-0.939-0.834c-0.055-0.477,0.257-0.919,0.725-1.027
		c3.235-0.75,5.494-3.6,5.494-6.928c0-4.099-2.951-7.309-6.714-7.309c-0.52,0-0.943-0.423-0.943-0.943
		c0-0.52,0.423-0.943,0.943-0.943c4.82,0,8.596,4.04,8.596,9.195c0,4.208-2.858,7.812-6.953,8.764
		C22.222,18.046,22.151,18.05,22.079,18.05L22.079,18.05z M22.079,18.05"/>
	<path fill="#ADD7DA" d="M16.497,18.611c-6.907,0-12.506,5.599-12.506,12.506c0,0.08,0.004,0.239,0.004,0.239
		s2.137,2.309,13.843,2.259c2.498-0.515,7.397-2.917,7.397-2.917C24.657,24.047,22.071,20.405,16.497,18.611L16.497,18.611z
		 M16.497,18.611"/>
	<path fill="#021F39" d="M14.297,33.934c-4.43,0-7.95-0.373-10.457-1.106c-2.012-0.591-2.787-1.253-3.026-1.513
		c-0.302-0.327-0.469-0.75-0.478-1.194v-0.243c0-7.23,5.88-13.11,13.114-13.11c7.23,0,13.114,5.88,13.114,13.11
		c0,0.578-0.281,1.127-0.755,1.463c-0.105,0.075-1.064,0.738-2.925,1.37c-2.385,0.813-5.151,1.224-8.219,1.224H14.297z
		 M2.218,30.057c0.117,0.1,0.696,0.549,2.242,0.989c1.605,0.457,4.614,1.006,9.832,1.006h0.365c3.562,0,6.102-0.608,7.607-1.119
		c1.438-0.486,2.23-0.981,2.406-1.098c-0.025-6.169-5.05-11.177-11.224-11.177c-6.19,0-11.228,5.038-11.228,11.224V30.057z
		 M2.218,30.057"/>
	<path fill="#021F39" d="M32.725,30.698c-0.52,0-0.943-0.423-0.943-0.943c0-6.454-5.75-10.943-9.723-11.576
		c-0.247-0.038-0.469-0.176-0.616-0.377c-0.147-0.201-0.205-0.452-0.168-0.7c0.084-0.516,0.566-0.863,1.081-0.784
		c4.623,0.738,11.307,5.947,11.307,13.437C33.668,30.275,33.245,30.698,32.725,30.698L32.725,30.698z M32.725,30.698"/>
</g>
</svg>
