<?xml version="1.0" encoding="utf-8"?>
<!-- Generator: Adobe Illustrator 15.0.0, SVG Export Plug-In . SVG Version: 6.00 Build 0)  -->
<!DOCTYPE svg PUBLIC "-//W3C//DTD SVG 1.1//EN" "http://www.w3.org/Graphics/SVG/1.1/DTD/svg11.dtd">
<svg version="1.1" id="图层_1" xmlns="http://www.w3.org/2000/svg" xmlns:xlink="http://www.w3.org/1999/xlink" x="0px" y="0px"
	 width="34px" height="34px" viewBox="0 0 34 34" enable-background="new 0 0 34 34" xml:space="preserve">
<g>
	<defs>
		<rect id="SVGID_1_" width="34" height="34"/>
	</defs>
	<clipPath id="SVGID_2_">
		<use xlink:href="#SVGID_1_"  overflow="visible"/>
	</clipPath>
	<path clip-path="url(#SVGID_2_)" fill="#ADD7DA" d="M32.985,10.939V5.485c0-0.809-0.656-1.465-1.467-1.465H2.481
		c-0.809,0-1.466,0.656-1.466,1.465v5.454H32.985z"/>
	<path clip-path="url(#SVGID_2_)" fill="#021F39" d="M30.605,32.738H3.395c-1.369,0-2.481-1.113-2.481-2.481V10.992
		c0-0.56,0.454-1.014,1.015-1.014c0.56,0,1.014,0.454,1.014,1.014v19.265c0,0.249,0.203,0.451,0.452,0.451h27.21
		c0.249,0,0.45-0.202,0.45-0.451V17.114c0-0.561,0.454-1.015,1.016-1.015c0.561,0,1.015,0.454,1.015,1.015v13.143
		C33.086,31.625,31.973,32.738,30.605,32.738"/>
	<path clip-path="url(#SVGID_2_)" fill="#021F39" d="M5.098,6.912c-0.56,0-1.015-0.454-1.015-1.014V2.277
		c0-0.56,0.455-1.015,1.015-1.015c0.561,0,1.015,0.455,1.015,1.015v3.621C6.113,6.458,5.659,6.912,5.098,6.912 M11.049,6.912
		c-0.561,0-1.015-0.454-1.015-1.014V2.277c0-0.56,0.454-1.015,1.015-1.015c0.56,0,1.015,0.455,1.015,1.015v3.621
		C12.064,6.458,11.609,6.912,11.049,6.912 M22.951,6.912c-0.562,0-1.015-0.454-1.015-1.014V2.277c0-0.56,0.453-1.015,1.015-1.015
		c0.56,0,1.015,0.455,1.015,1.015v3.621C23.966,6.458,23.511,6.912,22.951,6.912 M17,6.912c-0.561,0-1.015-0.454-1.015-1.014V2.277
		c0-0.56,0.454-1.015,1.015-1.015c0.562,0,1.015,0.455,1.015,1.015v3.621C18.015,6.458,17.562,6.912,17,6.912 M28.901,6.912
		c-0.561,0-1.015-0.454-1.015-1.014V2.277c0-0.56,0.454-1.015,1.015-1.015s1.016,0.455,1.016,1.015v3.621
		C29.917,6.458,29.462,6.912,28.901,6.912 M16.878,23.904c-0.27,0-0.527-0.107-0.718-0.297l-3.146-3.146
		c-0.397-0.396-0.397-1.04,0-1.436c0.396-0.396,1.039-0.396,1.435,0l2.429,2.429l4.624-4.625c0.397-0.396,1.039-0.396,1.437,0
		c0.396,0.397,0.396,1.039,0,1.437l-5.343,5.342C17.405,23.797,17.147,23.904,16.878,23.904"/>
	<path clip-path="url(#SVGID_2_)" fill="#021F39" d="M23.951,27.663H10.049c-0.56,0-1.015-0.455-1.015-1.016V15.793
		c0-0.56,0.455-1.015,1.015-1.015h6.308c0.561,0,1.015,0.455,1.015,1.015c0,0.561-0.454,1.015-1.015,1.015h-5.293v8.824h11.872
		v-4.345c0-0.562,0.454-1.016,1.016-1.016c0.561,0,1.015,0.455,1.015,1.016v5.359C24.966,27.209,24.512,27.663,23.951,27.663"/>
	<path clip-path="url(#SVGID_2_)" fill="#021F39" d="M32.985,11.954H1.015C0.454,11.954,0,11.5,0,10.939V5.485
		c0-1.368,1.113-2.481,2.481-2.481h29.038C32.887,3.004,34,4.117,34,5.485v5.454C34,11.5,33.546,11.954,32.985,11.954 M2.03,9.924
		h29.94V5.485c0-0.248-0.202-0.451-0.451-0.451H2.481c-0.248,0-0.451,0.203-0.451,0.451V9.924z"/>
</g>
</svg>
