<svg id="图层_1" data-name="图层 1" xmlns="http://www.w3.org/2000/svg" viewBox="0 0 32 32"><defs><style>.cls-1{fill:#1ea6bb;}.cls-2{fill:#666;}</style></defs><title>PC图标</title><path class="cls-1" d="M26,28.89a4.2,4.2,0,1,1,4.2-4.2A4.21,4.21,0,0,1,26,28.89Zm0-6.78a2.57,2.57,0,1,0,2.57,2.57A2.58,2.58,0,0,0,26,22.11Z"/><path class="cls-1" d="M26,21.59a.81.81,0,0,1-.81-.81V19.54a.81.81,0,1,1,1.63,0v1.24A.81.81,0,0,1,26,21.59Z"/><path class="cls-1" d="M23.2,22.75a.84.84,0,0,1-.57-.23l-.88-.86a.82.82,0,0,1,1.14-1.17l.88.86a.81.81,0,0,1-.57,1.4Z"/><path class="cls-1" d="M22.06,25.53H20.87a.81.81,0,0,1,0-1.63h1.19a.81.81,0,0,1,0,1.63Z"/><path class="cls-1" d="M22.35,29.16a.81.81,0,0,1-.57-1.4l.9-.88a.82.82,0,0,1,1.14,1.17l-.9.88a.84.84,0,0,1-.57.23Z"/><path class="cls-1" d="M26.05,30.68a.81.81,0,0,1-.81-.81V28.63a.81.81,0,1,1,1.63,0v1.24a.81.81,0,0,1-.81.81Z"/><path class="cls-1" d="M29.69,29.15a.76.76,0,0,1-.57-.24L28.24,28a.82.82,0,0,1,1.16-1.16l.88.88a.81.81,0,0,1,0,1.16A.83.83,0,0,1,29.69,29.15Z"/><path class="cls-1" d="M31.19,25.47H30a.81.81,0,0,1,0-1.63h1.22a.81.81,0,0,1,0,1.63Z"/><path class="cls-1" d="M28.79,22.7a.84.84,0,0,1-.57-.23.82.82,0,0,1,0-1.16l.88-.9a.82.82,0,0,1,1.17,1.14l-.88.9a.83.83,0,0,1-.59.24Z"/><path class="cls-2" d="M10.17,7.46H6.92a.81.81,0,0,1,0-1.63h3.24a.81.81,0,1,1,0,1.63Z"/><path class="cls-2" d="M18.33,7.46H15.09a.81.81,0,0,1,0-1.63h3.24a.81.81,0,0,1,0,1.63Z"/><path class="cls-2" d="M10.17,15.54H6.92a.81.81,0,1,1,0-1.63h3.24a.81.81,0,1,1,0,1.63Z"/><path class="cls-2" d="M18.33,15.54H15.09a.81.81,0,1,1,0-1.63h3.24a.81.81,0,0,1,0,1.63Z"/><path class="cls-2" d="M10.17,23.22H6.92a.81.81,0,1,1,0-1.63h3.24a.81.81,0,1,1,0,1.63Z"/><path class="cls-2" d="M18.33,23.22H15.09a.81.81,0,1,1,0-1.63h3.24a.81.81,0,0,1,0,1.63Z"/><path class="cls-2" d="M12.71,31.4H.81A.81.81,0,0,1,0,30.58V1.42A.81.81,0,0,1,.81.6H24.6a.81.81,0,0,1,.81.81V12.82a.81.81,0,1,1-1.63,0V2.23H1.63V29.77H12.71a.81.81,0,1,1,0,1.63Z"/></svg>