<svg id="图层_1" data-name="图层 1" xmlns="http://www.w3.org/2000/svg" viewBox="0 0 32 32"><defs><style>.cls-1{fill:#666;}.cls-2{fill:#1ea6bb;}</style></defs><title>PC图标</title><path class="cls-1" d="M11,16.27a6.84,6.84,0,1,1,6.84-6.84A6.85,6.85,0,0,1,11,16.27ZM11,4.22a5.21,5.21,0,1,0,5.21,5.21A5.22,5.22,0,0,0,11,4.22Z"/><path class="cls-1" d="M.81,27.56A.8.8,0,0,1,0,26.75,11.06,11.06,0,0,1,14.65,16.3a.81.81,0,1,1-.52,1.53A9.46,9.46,0,0,0,1.62,26.75a.8.8,0,0,1-.81.81Z"/><path class="cls-2" d="M23.49,26.73a5.86,5.86,0,1,1,5.86-5.86,5.87,5.87,0,0,1-5.86,5.86Zm0-10.1a4.24,4.24,0,1,0,4.24,4.24A4.24,4.24,0,0,0,23.49,16.63Z"/><path class="cls-2" d="M23.44,15.83a.8.8,0,0,1-.81-.81V13.17a.81.81,0,1,1,1.62,0V15A.8.8,0,0,1,23.44,15.83Zm-4.16,1.74a.82.82,0,0,1-.58-.24L17.41,16a.82.82,0,0,1,1.17-1.14l1.28,1.32a.82.82,0,0,1,0,1.15.84.84,0,0,1-.57.23Zm-1.67,4.17H15.76a.81.81,0,1,1,0-1.62h1.85a.81.81,0,0,1,0,1.62Zm.45,5.43a.84.84,0,0,1-.57-.23.8.8,0,0,1,0-1.15l1.3-1.32a.82.82,0,1,1,1.15,1.15l-1.3,1.32A.88.88,0,0,1,18.06,27.17Zm5.46,2.24a.8.8,0,0,1-.81-.81V26.75a.81.81,0,0,1,1.62,0V28.6A.8.8,0,0,1,23.52,29.41Zm5.43-2.31a.84.84,0,0,1-.57-.23l-1.32-1.3a.82.82,0,0,1,1.15-1.15l1.32,1.3a.8.8,0,0,1,0,1.15A.88.88,0,0,1,28.95,27.1Zm2.24-5.46H29.34a.81.81,0,0,1,0-1.62h1.85a.81.81,0,0,1,0,1.62Zm-3.57-4.11a.84.84,0,0,1-.57-.23.8.8,0,0,1,0-1.15l1.3-1.32A.82.82,0,1,1,29.5,16l-1.3,1.32A.88.88,0,0,1,27.61,17.54Z"/></svg>